<?xml version="1.0" encoding="UTF-8"?>
<svg xmlns="http://www.w3.org/2000/svg" width="560" height="540" viewBox="0 0 560 540">
  <!-- ipm-svg meta: generated-by=ipm-rpc@v0.0.0-20260526053612-5f36075cad04+dirty hash=44bba970 source-file=README.md source-id=03 -->

  <defs>
  </defs>
  <g id="container-shells">
  </g>
  <g id="node-shadows">
    <rect x="220" y="120" width="120" height="60" rx="6" ry="6" fill="#000000" stroke="#000000" stroke-width="2" opacity="0.25" transform="translate(2,3)"/>
    <rect x="220" y="240" width="120" height="60" rx="6" ry="6" fill="#000000" stroke="#000000" stroke-width="2" opacity="0.25" transform="translate(2,3)"/>
    <rect x="220" y="360" width="120" height="60" rx="6" ry="6" fill="#000000" stroke="#000000" stroke-width="2" opacity="0.25" transform="translate(2,3)"/>
    <rect x="40" y="120" width="120" height="60" rx="6" ry="6" fill="#000000" stroke="#000000" stroke-width="2" opacity="0.25" transform="translate(2,3)"/>
    <rect x="400" y="120" width="120" height="60" rx="6" ry="6" fill="#000000" stroke="#000000" stroke-width="2" opacity="0.25" transform="translate(2,3)"/>
    <rect x="400" y="240" width="120" height="60" rx="6" ry="6" fill="#000000" stroke="#000000" stroke-width="2" opacity="0.25" transform="translate(2,3)"/>
    <rect x="260" y="40" width="40" height="40" rx="4" ry="4" fill="#000000" stroke="#000000" stroke-width="2" opacity="0.25" transform="translate(2,3)"/>
    <rect x="260" y="460" width="40" height="40" rx="4" ry="4" fill="#000000" stroke="#000000" stroke-width="2" opacity="0.25" transform="translate(2,3)"/>
  </g>
  <g id="edges">
    <line x1="280.00" y1="184.00" x2="280.00" y2="229.25" stroke="#ff8000" stroke-width="3" />
    <path d="M 280.00 236.00 L 275.50 227.00 L 280.00 229.25 L 284.50 227.00 Z" fill="#ff8000" stroke="#ff8000" stroke-width="3" stroke-miterlimit="10"/>
    <line x1="280.00" y1="304.00" x2="280.00" y2="349.25" stroke="#ff8000" stroke-width="3" />
    <path d="M 280.00 356.00 L 275.50 347.00 L 280.00 349.25 L 284.50 347.00 Z" fill="#ff8000" stroke="#ff8000" stroke-width="3" stroke-miterlimit="10"/>
    <line x1="280.00" y1="424.00" x2="280.00" y2="449.25" stroke="#ff8000" stroke-width="3" />
    <path d="M 280.00 456.00 L 275.50 447.00 L 280.00 449.25 L 284.50 447.00 Z" fill="#ff8000" stroke="#ff8000" stroke-width="3" stroke-miterlimit="10"/>
    <line x1="164.00" y1="150.00" x2="209.25" y2="150.00" stroke="#82b366" stroke-width="3" />
    <path d="M 216.00 150.00 L 207.00 154.50 L 209.25 150.00 L 207.00 145.50 Z" fill="#82b366" stroke="#82b366" stroke-width="3" stroke-miterlimit="10"/>
    <line x1="132.83" y1="182.83" x2="212.40" y2="262.40" stroke="#82b366" stroke-width="3" />
    <path d="M 217.17 267.17 L 207.63 263.99 L 212.40 262.40 L 213.99 257.63 Z" fill="#82b366" stroke="#82b366" stroke-width="3" stroke-miterlimit="10"/>
    <line x1="116.79" y1="183.58" x2="215.19" y2="380.38" stroke="#82b366" stroke-width="3" />
    <path d="M 218.21 386.42 L 210.16 380.38 L 215.19 380.38 L 218.21 376.36 Z" fill="#82b366" stroke="#82b366" stroke-width="3" stroke-miterlimit="10"/>
    <line x1="396.00" y1="150.00" x2="350.75" y2="150.00" stroke="#82b366" stroke-width="3" />
    <path d="M 344.00 150.00 L 353.00 145.50 L 350.75 150.00 L 353.00 154.50 Z" fill="#82b366" stroke="#82b366" stroke-width="3" stroke-miterlimit="10"/>
    <line x1="423.69" y1="182.68" x2="347.99" y2="250.81" stroke="#82b366" stroke-width="3" />
    <path d="M 342.97 255.32 L 346.65 245.96 L 347.99 250.81 L 352.67 252.65 Z" fill="#82b366" stroke="#82b366" stroke-width="3" stroke-miterlimit="10"/>
    <line x1="396.02" y1="276.40" x2="350.70" y2="280.93" stroke="#82b366" stroke-width="3" />
    <path d="M 343.98 281.60 L 352.49 276.23 L 350.70 280.93 L 353.38 285.18 Z" fill="#82b366" stroke="#82b366" stroke-width="3" stroke-miterlimit="10"/>
    <line x1="427.17" y1="302.83" x2="347.60" y2="382.40" stroke="#82b366" stroke-width="3" />
    <path d="M 342.83 387.17 L 346.01 377.63 L 347.60 382.40 L 352.37 383.99 Z" fill="#82b366" stroke="#82b366" stroke-width="3" stroke-miterlimit="10"/>
    <line x1="280.00" y1="84.00" x2="280.00" y2="109.25" stroke="#ff8000" stroke-width="3" />
    <path d="M 280.00 116.00 L 275.50 107.00 L 280.00 109.25 L 284.50 107.00 Z" fill="#ff8000" stroke="#ff8000" stroke-width="3" stroke-miterlimit="10"/>
  </g>
  <g id="nodes">
    <rect x="220" y="120" width="120" height="60" rx="6" ry="6" fill="#ffe6cc" stroke="#ff8000" stroke-width="2"/>
    <text x="280" y="131" text-anchor="middle" dominant-baseline="middle" font-family="Helvetica,Inter,Segoe UI,Arial" font-size="16" font-weight="bold" fill="#ff8000">Patrick</text>
    <text x="280" y="150" text-anchor="middle" dominant-baseline="middle" font-family="Helvetica,Inter,Segoe UI,Arial" font-size="16" font-weight="bold" fill="#ff8000">wears black</text>
    <text x="280" y="169" text-anchor="middle" dominant-baseline="middle" font-family="Helvetica,Inter,Segoe UI,Arial" font-size="16" font-weight="bold" fill="#ff8000">t-shirt</text>
    <rect x="220" y="240" width="120" height="60" rx="6" ry="6" fill="#ffe6cc" stroke="#ff8000" stroke-width="2"/>
    <text x="280" y="251" text-anchor="middle" dominant-baseline="middle" font-family="Helvetica,Inter,Segoe UI,Arial" font-size="16" font-weight="bold" fill="#ff8000">Patrick</text>
    <text x="280" y="270" text-anchor="middle" dominant-baseline="middle" font-family="Helvetica,Inter,Segoe UI,Arial" font-size="16" font-weight="bold" fill="#ff8000">swaps</text>
    <text x="280" y="289" text-anchor="middle" dominant-baseline="middle" font-family="Helvetica,Inter,Segoe UI,Arial" font-size="16" font-weight="bold" fill="#ff8000">t-shirt</text>
    <rect x="220" y="360" width="120" height="60" rx="6" ry="6" fill="#ffe6cc" stroke="#ff8000" stroke-width="2"/>
    <text x="280" y="371" text-anchor="middle" dominant-baseline="middle" font-family="Helvetica,Inter,Segoe UI,Arial" font-size="16" font-weight="bold" fill="#ff8000">Patrick</text>
    <text x="280" y="390" text-anchor="middle" dominant-baseline="middle" font-family="Helvetica,Inter,Segoe UI,Arial" font-size="16" font-weight="bold" fill="#ff8000">wears white</text>
    <text x="280" y="409" text-anchor="middle" dominant-baseline="middle" font-family="Helvetica,Inter,Segoe UI,Arial" font-size="16" font-weight="bold" fill="#ff8000">t-shirt</text>
    <rect x="40" y="120" width="120" height="60" rx="6" ry="6" fill="#d5e8d4" stroke="#82b366" stroke-width="2"/>
    <text x="100" y="150" text-anchor="middle" dominant-baseline="middle" font-family="Helvetica,Inter,Segoe UI,Arial" font-size="16" font-weight="normal" fill="#009900">Patrick</text>
    <rect x="400" y="120" width="120" height="60" rx="6" ry="6" fill="#d5e8d4" stroke="#82b366" stroke-width="2"/>
    <text x="460" y="150" text-anchor="middle" dominant-baseline="middle" font-family="Helvetica,Inter,Segoe UI,Arial" font-size="16" font-weight="normal" fill="#009900">t-shirt B</text>
    <rect x="400" y="240" width="120" height="60" rx="6" ry="6" fill="#d5e8d4" stroke="#82b366" stroke-width="2"/>
    <text x="460" y="270" text-anchor="middle" dominant-baseline="middle" font-family="Helvetica,Inter,Segoe UI,Arial" font-size="16" font-weight="normal" fill="#009900">t-shirt W</text>
    <rect x="260" y="40" width="40" height="40" rx="4" ry="4" fill="#ffe6cc" stroke="#ff8000" stroke-width="2"/>
    <text x="280" y="60" text-anchor="middle" dominant-baseline="middle" font-family="Helvetica,Inter,Segoe UI,Arial" font-size="16" font-weight="bold" fill="#ff8000">S</text>
    <rect x="260" y="460" width="40" height="40" rx="4" ry="4" fill="#ffe6cc" stroke="#ff8000" stroke-width="2"/>
    <text x="280" y="480" text-anchor="middle" dominant-baseline="middle" font-family="Helvetica,Inter,Segoe UI,Arial" font-size="16" font-weight="bold" fill="#ff8000">E</text>
  </g>
</svg>
