<?xml version="1.0" encoding="UTF-8"?>
<svg xmlns="http://www.w3.org/2000/svg" width="560" height="540" viewBox="0 0 560 540">
  <!-- ipm-svg meta: generated-by=ipm-rpc@v0.0.0-20260607124246-60612769a5a9+dirty hash=ba3e167d source-file=README.md source-id=03 -->

  <defs>
  </defs>
  <g id="container-shells">
  </g>
  <g id="node-shadows">
    <rect x="220" y="120" width="120" height="60" rx="6" ry="6" fill="#000000" stroke="#000000" stroke-width="2" opacity="0.25" transform="translate(2,3)"/>
    <rect x="220" y="240" width="120" height="60" rx="6" ry="6" fill="#000000" stroke="#000000" stroke-width="2" opacity="0.25" transform="translate(2,3)"/>
    <rect x="220" y="360" width="120" height="60" rx="6" ry="6" fill="#000000" stroke="#000000" stroke-width="2" opacity="0.25" transform="translate(2,3)"/>
    <rect x="40" y="120" width="120" height="60" rx="6" ry="6" fill="#000000" stroke="#000000" stroke-width="2" opacity="0.25" transform="translate(2,3)"/>
    <rect x="400" y="120" width="120" height="60" rx="6" ry="6" fill="#000000" stroke="#000000" stroke-width="2" opacity="0.25" transform="translate(2,3)"/>
    <rect x="400" y="240" width="120" height="60" rx="6" ry="6" fill="#000000" stroke="#000000" stroke-width="2" opacity="0.25" transform="translate(2,3)"/>
    <rect x="260" y="40" width="40" height="40" rx="4" ry="4" fill="#000000" stroke="#000000" stroke-width="2" opacity="0.25" transform="translate(2,3)"/>
    <rect x="260" y="460" width="40" height="40" rx="4" ry="4" fill="#000000" stroke="#000000" stroke-width="2" opacity="0.25" transform="translate(2,3)"/>
  </g>
  <g id="edges">
    <g class="edge" data-edge-idx="0" data-edge-base="leadsto" data-edge-from="1" data-edge-to="2">
    <line x1="280.00" y1="184.00" x2="280.00" y2="229.25" stroke="#ff8000" stroke-width="3" />
    <path d="M 280.00 236.00 L 275.50 227.00 L 280.00 229.25 L 284.50 227.00 Z" fill="#ff8000" stroke="#ff8000" stroke-width="3" stroke-miterlimit="10"/>
    </g>
    <g class="edge" data-edge-idx="1" data-edge-base="leadsto" data-edge-from="2" data-edge-to="3">
    <line x1="280.00" y1="304.00" x2="280.00" y2="349.25" stroke="#ff8000" stroke-width="3" />
    <path d="M 280.00 356.00 L 275.50 347.00 L 280.00 349.25 L 284.50 347.00 Z" fill="#ff8000" stroke="#ff8000" stroke-width="3" stroke-miterlimit="10"/>
    </g>
    <g class="edge" data-edge-idx="2" data-edge-base="leadsto" data-edge-from="3" data-edge-to="8">
    <line x1="280.00" y1="424.00" x2="280.00" y2="449.25" stroke="#ff8000" stroke-width="3" />
    <path d="M 280.00 456.00 L 275.50 447.00 L 280.00 449.25 L 284.50 447.00 Z" fill="#ff8000" stroke="#ff8000" stroke-width="3" stroke-miterlimit="10"/>
    </g>
    <g class="edge" data-edge-idx="3" data-edge-base="partof" data-edge-from="4" data-edge-to="1">
    <line x1="163.83" y1="133.15" x2="209.70" y2="146.91" stroke="#82b366" stroke-width="3" />
    <path d="M 216.17 148.85 L 206.26 150.57 L 209.70 146.91 L 208.84 141.95 Z" fill="#82b366" stroke="#82b366" stroke-width="3" stroke-miterlimit="10"/>
    </g>
    <g class="edge" data-edge-idx="4" data-edge-base="partof" data-edge-from="4" data-edge-to="2">
    <line x1="161.79" y1="153.58" x2="215.19" y2="260.38" stroke="#82b366" stroke-width="3" />
    <path d="M 218.21 266.42 L 210.16 260.38 L 215.19 260.38 L 218.21 256.36 Z" fill="#82b366" stroke="#82b366" stroke-width="3" stroke-miterlimit="10"/>
    </g>
    <g class="edge" data-edge-idx="5" data-edge-base="partof" data-edge-from="4" data-edge-to="3">
    <line x1="161.04" y1="171.86" x2="217.20" y2="379.62" stroke="#82b366" stroke-width="3" />
    <path d="M 218.96 386.14 L 212.26 378.62 L 217.20 379.62 L 220.95 376.28 Z" fill="#82b366" stroke="#82b366" stroke-width="3" stroke-miterlimit="10"/>
    </g>
    <g class="edge" data-edge-idx="6" data-edge-base="partof" data-edge-from="5" data-edge-to="1">
    <line x1="396.04" y1="141.59" x2="350.63" y2="148.41" stroke="#82b366" stroke-width="3" />
    <path d="M 343.96 149.41 L 352.19 143.62 L 350.63 148.41 L 353.52 152.52 Z" fill="#82b366" stroke="#82b366" stroke-width="3" stroke-miterlimit="10"/>
    </g>
    <g class="edge" data-edge-idx="7" data-edge-base="partof" data-edge-from="5" data-edge-to="2">
    <line x1="397.97" y1="162.45" x2="345.45" y2="251.73" stroke="#82b366" stroke-width="3" />
    <path d="M 342.03 257.55 L 342.71 247.51 L 345.45 251.73 L 350.47 252.08 Z" fill="#82b366" stroke="#82b366" stroke-width="3" stroke-miterlimit="10"/>
    </g>
    <g class="edge" data-edge-idx="8" data-edge-base="partof" data-edge-from="6" data-edge-to="2">
    <line x1="396.17" y1="262.15" x2="350.30" y2="275.91" stroke="#82b366" stroke-width="3" />
    <path d="M 343.83 277.85 L 351.16 270.95 L 350.30 275.91 L 353.74 279.57 Z" fill="#82b366" stroke="#82b366" stroke-width="3" stroke-miterlimit="10"/>
    </g>
    <g class="edge" data-edge-idx="9" data-edge-base="partof" data-edge-from="6" data-edge-to="3">
    <line x1="398.10" y1="282.52" x2="345.11" y2="380.54" stroke="#82b366" stroke-width="3" />
    <path d="M 341.90 386.48 L 342.22 376.42 L 345.11 380.54 L 350.14 380.70 Z" fill="#82b366" stroke="#82b366" stroke-width="3" stroke-miterlimit="10"/>
    </g>
    <g class="edge" data-edge-idx="10" data-edge-base="leadsto" data-edge-from="7" data-edge-to="1">
    <line x1="280.00" y1="84.00" x2="280.00" y2="109.25" stroke="#ff8000" stroke-width="3" />
    <path d="M 280.00 116.00 L 275.50 107.00 L 280.00 109.25 L 284.50 107.00 Z" fill="#ff8000" stroke="#ff8000" stroke-width="3" stroke-miterlimit="10"/>
    </g>
  </g>
  <g id="nodes">
    <rect x="220" y="120" width="120" height="60" rx="6" ry="6" fill="#ffe6cc" stroke="#ff8000" stroke-width="2"/>
    <text x="280" y="131" text-anchor="middle" dominant-baseline="middle" font-family="Helvetica,Inter,Segoe UI,Arial" font-size="16" font-weight="bold" fill="#ff8000">Patrick</text>
    <text x="280" y="150" text-anchor="middle" dominant-baseline="middle" font-family="Helvetica,Inter,Segoe UI,Arial" font-size="16" font-weight="bold" fill="#ff8000">wears black</text>
    <text x="280" y="169" text-anchor="middle" dominant-baseline="middle" font-family="Helvetica,Inter,Segoe UI,Arial" font-size="16" font-weight="bold" fill="#ff8000">t-shirt</text>
    <rect x="220" y="240" width="120" height="60" rx="6" ry="6" fill="#ffe6cc" stroke="#ff8000" stroke-width="2"/>
    <text x="280" y="251" text-anchor="middle" dominant-baseline="middle" font-family="Helvetica,Inter,Segoe UI,Arial" font-size="16" font-weight="bold" fill="#ff8000">Patrick</text>
    <text x="280" y="270" text-anchor="middle" dominant-baseline="middle" font-family="Helvetica,Inter,Segoe UI,Arial" font-size="16" font-weight="bold" fill="#ff8000">swaps</text>
    <text x="280" y="289" text-anchor="middle" dominant-baseline="middle" font-family="Helvetica,Inter,Segoe UI,Arial" font-size="16" font-weight="bold" fill="#ff8000">t-shirt</text>
    <rect x="220" y="360" width="120" height="60" rx="6" ry="6" fill="#ffe6cc" stroke="#ff8000" stroke-width="2"/>
    <text x="280" y="371" text-anchor="middle" dominant-baseline="middle" font-family="Helvetica,Inter,Segoe UI,Arial" font-size="16" font-weight="bold" fill="#ff8000">Patrick</text>
    <text x="280" y="390" text-anchor="middle" dominant-baseline="middle" font-family="Helvetica,Inter,Segoe UI,Arial" font-size="16" font-weight="bold" fill="#ff8000">wears white</text>
    <text x="280" y="409" text-anchor="middle" dominant-baseline="middle" font-family="Helvetica,Inter,Segoe UI,Arial" font-size="16" font-weight="bold" fill="#ff8000">t-shirt</text>
    <rect x="40" y="120" width="120" height="60" rx="6" ry="6" fill="#d5e8d4" stroke="#82b366" stroke-width="2"/>
    <text x="100" y="150" text-anchor="middle" dominant-baseline="middle" font-family="Helvetica,Inter,Segoe UI,Arial" font-size="16" font-weight="normal" fill="#009900">Patrick</text>
    <rect x="400" y="120" width="120" height="60" rx="6" ry="6" fill="#d5e8d4" stroke="#82b366" stroke-width="2"/>
    <text x="460" y="140" text-anchor="middle" dominant-baseline="middle" font-family="Helvetica,Inter,Segoe UI,Arial" font-size="16" font-weight="normal" fill="#009900">black</text>
    <text x="460" y="160" text-anchor="middle" dominant-baseline="middle" font-family="Helvetica,Inter,Segoe UI,Arial" font-size="16" font-weight="normal" fill="#009900">t-shirt</text>
    <rect x="400" y="240" width="120" height="60" rx="6" ry="6" fill="#d5e8d4" stroke="#82b366" stroke-width="2"/>
    <text x="460" y="260" text-anchor="middle" dominant-baseline="middle" font-family="Helvetica,Inter,Segoe UI,Arial" font-size="16" font-weight="normal" fill="#009900">white</text>
    <text x="460" y="280" text-anchor="middle" dominant-baseline="middle" font-family="Helvetica,Inter,Segoe UI,Arial" font-size="16" font-weight="normal" fill="#009900">t-shirt</text>
    <rect x="260" y="40" width="40" height="40" rx="4" ry="4" fill="#ffe6cc" stroke="#ff8000" stroke-width="2"/>
    <text x="280" y="60" text-anchor="middle" dominant-baseline="middle" font-family="Helvetica,Inter,Segoe UI,Arial" font-size="16" font-weight="bold" fill="#ff8000">S</text>
    <rect x="260" y="460" width="40" height="40" rx="4" ry="4" fill="#ffe6cc" stroke="#ff8000" stroke-width="2"/>
    <text x="280" y="480" text-anchor="middle" dominant-baseline="middle" font-family="Helvetica,Inter,Segoe UI,Arial" font-size="16" font-weight="bold" fill="#ff8000">E</text>
  </g>
</svg>
