<?xml version="1.0" encoding="UTF-8"?>
<svg xmlns="http://www.w3.org/2000/svg" width="560" height="780" viewBox="0 0 560 780">
  <!-- ipm-svg meta: generated-by=md-embed@dev hash=e7b5cdce source-file=README.md source-id=06 -->

  <defs>
  </defs>
  <g id="container-shells">
  </g>
  <g id="node-shadows">
    <rect x="40" y="350" width="120" height="80" rx="6" ry="6" fill="#000000" stroke="#000000" stroke-width="2" opacity="0.25" transform="translate(2,3)"/>
    <rect x="220" y="120" width="120" height="60" rx="6" ry="6" fill="#000000" stroke="#000000" stroke-width="2" opacity="0.25" transform="translate(2,3)"/>
    <rect x="220" y="360" width="120" height="60" rx="6" ry="6" fill="#000000" stroke="#000000" stroke-width="2" opacity="0.25" transform="translate(2,3)"/>
    <rect x="220" y="600" width="120" height="60" rx="6" ry="6" fill="#000000" stroke="#000000" stroke-width="2" opacity="0.25" transform="translate(2,3)"/>
    <rect x="400" y="240" width="120" height="60" rx="6" ry="6" fill="#000000" stroke="#000000" stroke-width="2" opacity="0.25" transform="translate(2,3)"/>
    <rect x="400" y="360" width="120" height="60" rx="6" ry="6" fill="#000000" stroke="#000000" stroke-width="2" opacity="0.25" transform="translate(2,3)"/>
    <rect x="400" y="480" width="120" height="60" rx="6" ry="6" fill="#000000" stroke="#000000" stroke-width="2" opacity="0.25" transform="translate(2,3)"/>
    <rect x="80" y="40" width="40" height="40" rx="4" ry="4" fill="#000000" stroke="#000000" stroke-width="2" opacity="0.25" transform="translate(2,3)"/>
    <rect x="80" y="700" width="40" height="40" rx="4" ry="4" fill="#000000" stroke="#000000" stroke-width="2" opacity="0.25" transform="translate(2,3)"/>
  </g>
  <g id="edges">
    <line x1="100.00" y1="434.00" x2="100.00" y2="689.25" stroke="#ff8000" stroke-width="3" />
    <path d="M 100.00 696.00 L 95.50 687.00 L 100.00 689.25 L 104.50 687.00 Z" fill="#ff8000" stroke="#ff8000" stroke-width="3" stroke-miterlimit="10"/>
    <line x1="255.10" y1="183.20" x2="136.45" y2="341.40" stroke="#82b366" stroke-width="3" />
    <path d="M 132.40 346.80 L 134.20 336.90 L 136.45 341.40 L 141.40 342.30 Z" fill="#82b366" stroke="#82b366" stroke-width="3" stroke-miterlimit="10"/>
    <line x1="280.00" y1="184.00" x2="280.00" y2="349.25" stroke="#ff8000" stroke-width="3" />
    <path d="M 280.00 356.00 L 275.50 347.00 L 280.00 349.25 L 284.50 347.00 Z" fill="#ff8000" stroke="#ff8000" stroke-width="3" stroke-miterlimit="10"/>
    <line x1="216.00" y1="390.00" x2="170.75" y2="390.00" stroke="#82b366" stroke-width="3" />
    <path d="M 164.00 390.00 L 173.00 385.50 L 170.75 390.00 L 173.00 394.50 Z" fill="#82b366" stroke="#82b366" stroke-width="3" stroke-miterlimit="10"/>
    <line x1="280.00" y1="424.00" x2="280.00" y2="589.25" stroke="#ff8000" stroke-width="3" />
    <path d="M 280.00 596.00 L 275.50 587.00 L 280.00 589.25 L 284.50 587.00 Z" fill="#ff8000" stroke="#ff8000" stroke-width="3" stroke-miterlimit="10"/>
    <line x1="255.10" y1="596.80" x2="136.45" y2="438.60" stroke="#82b366" stroke-width="3" />
    <path d="M 132.40 433.20 L 141.40 437.70 L 136.45 438.60 L 134.20 443.10 Z" fill="#82b366" stroke="#82b366" stroke-width="3" stroke-miterlimit="10"/>
    <line x1="411.67" y1="302.22" x2="333.94" y2="354.04" stroke="#82b366" stroke-width="3" />
    <path d="M 328.33 357.78 L 333.32 349.04 L 333.94 354.04 L 338.31 356.53 Z" fill="#82b366" stroke="#82b366" stroke-width="3" stroke-miterlimit="10"/>
    <line x1="460.00" y1="304.00" x2="460.00" y2="349.25" stroke="#ff8000" stroke-width="3" />
    <path d="M 460.00 356.00 L 455.50 347.00 L 460.00 349.25 L 464.50 347.00 Z" fill="#ff8000" stroke="#ff8000" stroke-width="3" stroke-miterlimit="10"/>
    <line x1="396.00" y1="390.00" x2="350.75" y2="390.00" stroke="#82b366" stroke-width="3" />
    <path d="M 344.00 390.00 L 353.00 385.50 L 350.75 390.00 L 353.00 394.50 Z" fill="#82b366" stroke="#82b366" stroke-width="3" stroke-miterlimit="10"/>
    <line x1="460.00" y1="424.00" x2="460.00" y2="469.25" stroke="#ff8000" stroke-width="3" />
    <path d="M 460.00 476.00 L 455.50 467.00 L 460.00 469.25 L 464.50 467.00 Z" fill="#ff8000" stroke="#ff8000" stroke-width="3" stroke-miterlimit="10"/>
    <line x1="411.67" y1="477.78" x2="333.94" y2="425.96" stroke="#82b366" stroke-width="3" />
    <path d="M 328.33 422.22 L 338.31 423.47 L 333.94 425.96 L 333.32 430.96 Z" fill="#82b366" stroke="#82b366" stroke-width="3" stroke-miterlimit="10"/>
    <line x1="100.00" y1="84.00" x2="100.00" y2="339.25" stroke="#ff8000" stroke-width="3" />
    <path d="M 100.00 346.00 L 95.50 337.00 L 100.00 339.25 L 104.50 337.00 Z" fill="#ff8000" stroke="#ff8000" stroke-width="3" stroke-miterlimit="10"/>
  </g>
  <g id="nodes">
    <rect x="40" y="350" width="120" height="80" rx="6" ry="6" fill="#ffe6cc" stroke="#ff8000" stroke-width="2"/>
    <text x="100" y="373" text-anchor="middle" dominant-baseline="middle" font-family="Helvetica,Inter,Segoe UI,Arial" font-size="14" font-weight="bold" fill="#ff8000">Patrick wears</text>
    <text x="100" y="390" text-anchor="middle" dominant-baseline="middle" font-family="Helvetica,Inter,Segoe UI,Arial" font-size="14" font-weight="bold" fill="#ff8000">black then</text>
    <text x="100" y="407" text-anchor="middle" dominant-baseline="middle" font-family="Helvetica,Inter,Segoe UI,Arial" font-size="14" font-weight="bold" fill="#ff8000">wears white</text>
    <rect x="220" y="120" width="120" height="60" rx="6" ry="6" fill="#ffe6cc" stroke="#ff8000" stroke-width="2"/>
    <text x="280" y="131" text-anchor="middle" dominant-baseline="middle" font-family="Helvetica,Inter,Segoe UI,Arial" font-size="16" font-weight="bold" fill="#ff8000">Patrick</text>
    <text x="280" y="150" text-anchor="middle" dominant-baseline="middle" font-family="Helvetica,Inter,Segoe UI,Arial" font-size="16" font-weight="bold" fill="#ff8000">wears black</text>
    <text x="280" y="169" text-anchor="middle" dominant-baseline="middle" font-family="Helvetica,Inter,Segoe UI,Arial" font-size="16" font-weight="bold" fill="#ff8000">t-shirt</text>
    <rect x="220" y="360" width="120" height="60" rx="6" ry="6" fill="#ffe6cc" stroke="#ff8000" stroke-width="2"/>
    <text x="280" y="371" text-anchor="middle" dominant-baseline="middle" font-family="Helvetica,Inter,Segoe UI,Arial" font-size="16" font-weight="bold" fill="#ff8000">Patrick</text>
    <text x="280" y="390" text-anchor="middle" dominant-baseline="middle" font-family="Helvetica,Inter,Segoe UI,Arial" font-size="16" font-weight="bold" fill="#ff8000">swaps</text>
    <text x="280" y="409" text-anchor="middle" dominant-baseline="middle" font-family="Helvetica,Inter,Segoe UI,Arial" font-size="16" font-weight="bold" fill="#ff8000">t-shirt</text>
    <rect x="220" y="600" width="120" height="60" rx="6" ry="6" fill="#ffe6cc" stroke="#ff8000" stroke-width="2"/>
    <text x="280" y="611" text-anchor="middle" dominant-baseline="middle" font-family="Helvetica,Inter,Segoe UI,Arial" font-size="16" font-weight="bold" fill="#ff8000">Patrick</text>
    <text x="280" y="630" text-anchor="middle" dominant-baseline="middle" font-family="Helvetica,Inter,Segoe UI,Arial" font-size="16" font-weight="bold" fill="#ff8000">wears white</text>
    <text x="280" y="649" text-anchor="middle" dominant-baseline="middle" font-family="Helvetica,Inter,Segoe UI,Arial" font-size="16" font-weight="bold" fill="#ff8000">t-shirt</text>
    <rect x="400" y="240" width="120" height="60" rx="6" ry="6" fill="#ffe6cc" stroke="#ff8000" stroke-width="2"/>
    <text x="460" y="260" text-anchor="middle" dominant-baseline="middle" font-family="Helvetica,Inter,Segoe UI,Arial" font-size="16" font-weight="bold" fill="#ff8000">Take off</text>
    <text x="460" y="280" text-anchor="middle" dominant-baseline="middle" font-family="Helvetica,Inter,Segoe UI,Arial" font-size="16" font-weight="bold" fill="#ff8000">black</text>
    <rect x="400" y="360" width="120" height="60" rx="6" ry="6" fill="#ffe6cc" stroke="#ff8000" stroke-width="2"/>
    <text x="460" y="380" text-anchor="middle" dominant-baseline="middle" font-family="Helvetica,Inter,Segoe UI,Arial" font-size="16" font-weight="bold" fill="#ff8000">Patrick</text>
    <text x="460" y="400" text-anchor="middle" dominant-baseline="middle" font-family="Helvetica,Inter,Segoe UI,Arial" font-size="16" font-weight="bold" fill="#ff8000">half-naked</text>
    <rect x="400" y="480" width="120" height="60" rx="6" ry="6" fill="#ffe6cc" stroke="#ff8000" stroke-width="2"/>
    <text x="460" y="500" text-anchor="middle" dominant-baseline="middle" font-family="Helvetica,Inter,Segoe UI,Arial" font-size="16" font-weight="bold" fill="#ff8000">Take on</text>
    <text x="460" y="520" text-anchor="middle" dominant-baseline="middle" font-family="Helvetica,Inter,Segoe UI,Arial" font-size="16" font-weight="bold" fill="#ff8000">white</text>
    <rect x="80" y="40" width="40" height="40" rx="4" ry="4" fill="#ffe6cc" stroke="#ff8000" stroke-width="2"/>
    <text x="100" y="60" text-anchor="middle" dominant-baseline="middle" font-family="Helvetica,Inter,Segoe UI,Arial" font-size="16" font-weight="bold" fill="#ff8000">S</text>
    <rect x="80" y="700" width="40" height="40" rx="4" ry="4" fill="#ffe6cc" stroke="#ff8000" stroke-width="2"/>
    <text x="100" y="720" text-anchor="middle" dominant-baseline="middle" font-family="Helvetica,Inter,Segoe UI,Arial" font-size="16" font-weight="bold" fill="#ff8000">E</text>
  </g>
</svg>
