<?xml version="1.0" encoding="UTF-8"?>
<svg xmlns="http://www.w3.org/2000/svg" width="1460" height="800" viewBox="0 0 1460 800">
  <!-- ipm-svg meta: generated-by=md-embed@dev hash=a62bad6a source-file=README.md source-id=08 -->

  <defs>
  </defs>
  <g id="container-shells">
  </g>
  <g id="node-shadows">
    <rect x="400" y="465" width="120" height="80" rx="6" ry="6" fill="#000000" stroke="#000000" stroke-width="2" opacity="0.25" transform="translate(2,3)"/>
    <rect x="40" y="555" width="120" height="60" rx="6" ry="6" fill="#000000" stroke="#000000" stroke-width="2" opacity="0.25" transform="translate(2,3)"/>
    <rect x="940" y="330" width="120" height="60" rx="6" ry="6" fill="#000000" stroke="#000000" stroke-width="2" opacity="0.25" transform="translate(2,3)"/>
    <rect x="940" y="570" width="120" height="60" rx="6" ry="6" fill="#000000" stroke="#000000" stroke-width="2" opacity="0.25" transform="translate(2,3)"/>
    <rect x="1120" y="520" width="120" height="60" rx="6" ry="6" fill="#000000" stroke="#000000" stroke-width="2" opacity="0.25" transform="translate(2,3)"/>
    <rect x="1120" y="380" width="120" height="60" rx="6" ry="6" fill="#000000" stroke="#000000" stroke-width="2" opacity="0.25" transform="translate(2,3)"/>
    <rect x="1120" y="620" width="120" height="60" rx="6" ry="6" fill="#000000" stroke="#000000" stroke-width="2" opacity="0.25" transform="translate(2,3)"/>
    <rect x="1300" y="620" width="120" height="60" rx="6" ry="6" fill="#000000" stroke="#000000" stroke-width="2" opacity="0.25" transform="translate(2,3)"/>
    <rect x="440" y="250" width="40" height="40" rx="4" ry="4" fill="#000000" stroke="#000000" stroke-width="2" opacity="0.25" transform="translate(2,3)"/>
    <rect x="440" y="720" width="40" height="40" rx="4" ry="4" fill="#000000" stroke="#000000" stroke-width="2" opacity="0.25" transform="translate(2,3)"/>
    <rect x="580" y="330" width="120" height="60" rx="6" ry="6" fill="#000000" stroke="#000000" stroke-width="2" opacity="0.25" transform="translate(2,3)"/>
    <rect x="580" y="475" width="120" height="60" rx="6" ry="6" fill="#000000" stroke="#000000" stroke-width="2" opacity="0.25" transform="translate(2,3)"/>
    <rect x="580" y="570" width="120" height="60" rx="6" ry="6" fill="#000000" stroke="#000000" stroke-width="2" opacity="0.25" transform="translate(2,3)"/>
    <rect x="760" y="330" width="120" height="60" rx="6" ry="6" fill="#000000" stroke="#000000" stroke-width="2" opacity="0.25" transform="translate(2,3)"/>
    <rect x="760" y="450" width="120" height="60" rx="6" ry="6" fill="#000000" stroke="#000000" stroke-width="2" opacity="0.25" transform="translate(2,3)"/>
    <rect x="760" y="570" width="120" height="60" rx="6" ry="6" fill="#000000" stroke="#000000" stroke-width="2" opacity="0.25" transform="translate(2,3)"/>
    <rect x="220" y="475" width="120" height="60" rx="6" ry="6" fill="#000000" stroke="#000000" stroke-width="2" opacity="0.25" transform="translate(2,3)"/>
    <rect x="220" y="555" width="120" height="60" rx="6" ry="6" fill="#000000" stroke="#000000" stroke-width="2" opacity="0.25" transform="translate(2,3)"/>
  </g>
  <g id="edges">
    <line x1="460.00" y1="549.00" x2="460.00" y2="709.25" stroke="#ff8000" stroke-width="3" />
    <path d="M 460.00 716.00 L 455.50 707.00 L 460.00 709.25 L 464.50 707.00 Z" fill="#ff8000" stroke="#ff8000" stroke-width="3" stroke-miterlimit="10"/>
    <line x1="1031.17" y1="392.90" x2="1144.19" y2="512.20" stroke="#6c8ebf" stroke-width="3" stroke-dasharray="9 6" />
    <path d="M 1148.83 517.10 L 1139.37 513.66 L 1144.19 512.20 L 1145.91 507.47 Z" fill="#6c8ebf" stroke="#6c8ebf" stroke-width="3" stroke-miterlimit="10"/>
    <line x1="1063.85" y1="377.74" x2="1109.64" y2="390.46" stroke="#6c8ebf" stroke-width="3" stroke-dasharray="9 6" />
    <path d="M 1116.15 392.26 L 1106.27 394.19 L 1109.64 390.46 L 1108.68 385.52 Z" fill="#6c8ebf" stroke="#6c8ebf" stroke-width="3" stroke-miterlimit="10"/>
    <line x1="936.00" y1="360.00" x2="890.75" y2="360.00" stroke="#82b366" stroke-width="3" />
    <path d="M 884.00 360.00 L 893.00 355.50 L 890.75 360.00 L 893.00 364.50 Z" fill="#82b366" stroke="#82b366" stroke-width="3" stroke-miterlimit="10"/>
    <line x1="1063.85" y1="582.26" x2="1109.64" y2="569.54" stroke="#6c8ebf" stroke-width="3" stroke-dasharray="9 6" />
    <path d="M 1116.15 567.74 L 1108.68 574.48 L 1109.64 569.54 L 1106.27 565.81 Z" fill="#6c8ebf" stroke="#6c8ebf" stroke-width="3" stroke-miterlimit="10"/>
    <line x1="1063.85" y1="617.74" x2="1109.64" y2="630.46" stroke="#6c8ebf" stroke-width="3" stroke-dasharray="9 6" />
    <path d="M 1116.15 632.26 L 1106.27 634.19 L 1109.64 630.46 L 1108.68 625.52 Z" fill="#6c8ebf" stroke="#6c8ebf" stroke-width="3" stroke-miterlimit="10"/>
    <line x1="936.00" y1="600.00" x2="890.75" y2="600.00" stroke="#82b366" stroke-width="3" />
    <path d="M 884.00 600.00 L 893.00 595.50 L 890.75 600.00 L 893.00 604.50 Z" fill="#82b366" stroke="#82b366" stroke-width="3" stroke-miterlimit="10"/>
    <line x1="1204.90" y1="443.20" x2="1331.05" y2="611.40" stroke="#6c8ebf" stroke-width="3" stroke-dasharray="9 6" />
    <path d="M 1335.10 616.80 L 1326.10 612.30 L 1331.05 611.40 L 1333.30 606.90 Z" fill="#6c8ebf" stroke="#6c8ebf" stroke-width="3" stroke-miterlimit="10"/>
    <line x1="1244.00" y1="650.00" x2="1289.25" y2="650.00" stroke="#6c8ebf" stroke-width="3" stroke-dasharray="9 6" />
    <path d="M 1296.00 650.00 L 1287.00 654.50 L 1289.25 650.00 L 1287.00 645.50 Z" fill="#6c8ebf" stroke="#6c8ebf" stroke-width="3" stroke-miterlimit="10"/>
    <line x1="460.00" y1="294.00" x2="460.00" y2="454.25" stroke="#ff8000" stroke-width="3" />
    <path d="M 460.00 461.00 L 455.50 452.00 L 460.00 454.25 L 464.50 452.00 Z" fill="#ff8000" stroke="#ff8000" stroke-width="3" stroke-miterlimit="10"/>
    <line x1="599.64" y1="392.51" x2="518.03" y2="458.26" stroke="#82b366" stroke-width="3" />
    <path d="M 512.77 462.49 L 516.96 453.34 L 518.03 458.26 L 522.60 460.35 Z" fill="#82b366" stroke="#82b366" stroke-width="3" stroke-miterlimit="10"/>
    <line x1="640.00" y1="394.00" x2="640.00" y2="464.25" stroke="#ff8000" stroke-width="3" />
    <path d="M 640.00 471.00 L 635.50 462.00 L 640.00 464.25 L 644.50 462.00 Z" fill="#ff8000" stroke="#ff8000" stroke-width="3" stroke-miterlimit="10"/>
    <line x1="576.00" y1="505.00" x2="530.75" y2="505.00" stroke="#82b366" stroke-width="3" />
    <path d="M 524.00 505.00 L 533.00 500.50 L 530.75 505.00 L 533.00 509.50 Z" fill="#82b366" stroke="#82b366" stroke-width="3" stroke-miterlimit="10"/>
    <line x1="640.00" y1="539.00" x2="640.00" y2="559.25" stroke="#ff8000" stroke-width="3" />
    <path d="M 640.00 566.00 L 635.50 557.00 L 640.00 559.25 L 644.50 557.00 Z" fill="#ff8000" stroke="#ff8000" stroke-width="3" stroke-miterlimit="10"/>
    <line x1="576.00" y1="505.00" x2="350.75" y2="505.00" stroke="#6c8ebf" stroke-width="3" stroke-dasharray="9 6" />
    <path d="M 344.00 505.00 L 353.00 500.50 L 350.75 505.00 L 353.00 509.50 Z" fill="#6c8ebf" stroke="#6c8ebf" stroke-width="3" stroke-miterlimit="10"/>
    <line x1="579.62" y1="568.13" x2="529.51" y2="541.68" stroke="#82b366" stroke-width="3" />
    <path d="M 523.54 538.53 L 533.60 538.75 L 529.51 541.68 L 529.40 546.71 Z" fill="#82b366" stroke="#82b366" stroke-width="3" stroke-miterlimit="10"/>
    <line x1="779.64" y1="392.51" x2="685.61" y2="468.26" stroke="#82b366" stroke-width="3" />
    <path d="M 680.36 472.49 L 684.54 463.34 L 685.61 468.26 L 690.19 470.35 Z" fill="#82b366" stroke="#82b366" stroke-width="3" stroke-miterlimit="10"/>
    <line x1="820.00" y1="394.00" x2="820.00" y2="439.25" stroke="#ff8000" stroke-width="3" />
    <path d="M 820.00 446.00 L 815.50 437.00 L 820.00 439.25 L 824.50 437.00 Z" fill="#ff8000" stroke="#ff8000" stroke-width="3" stroke-miterlimit="10"/>
    <line x1="756.04" y1="488.88" x2="710.65" y2="495.19" stroke="#82b366" stroke-width="3" />
    <path d="M 703.96 496.12 L 712.26 490.42 L 710.65 495.19 L 713.50 499.34 Z" fill="#82b366" stroke="#82b366" stroke-width="3" stroke-miterlimit="10"/>
    <line x1="820.00" y1="514.00" x2="820.00" y2="559.25" stroke="#ff8000" stroke-width="3" />
    <path d="M 820.00 566.00 L 815.50 557.00 L 820.00 559.25 L 824.50 557.00 Z" fill="#ff8000" stroke="#ff8000" stroke-width="3" stroke-miterlimit="10"/>
    <line x1="759.62" y1="568.13" x2="706.35" y2="540.02" stroke="#82b366" stroke-width="3" />
    <path d="M 700.38 536.87 L 710.44 537.09 L 706.35 540.02 L 706.24 545.05 Z" fill="#82b366" stroke="#82b366" stroke-width="3" stroke-miterlimit="10"/>
    <line x1="328.33" y1="552.78" x2="391.06" y2="510.96" stroke="#82b366" stroke-width="3" />
    <path d="M 396.67 507.22 L 391.68 515.96 L 391.06 510.96 L 386.69 508.47 Z" fill="#82b366" stroke="#82b366" stroke-width="3" stroke-miterlimit="10"/>
    <line x1="216.00" y1="585.00" x2="170.75" y2="585.00" stroke="#6c8ebf" stroke-width="3" stroke-dasharray="9 6" />
    <path d="M 164.00 585.00 L 173.00 580.50 L 170.75 585.00 L 173.00 589.50 Z" fill="#6c8ebf" stroke="#6c8ebf" stroke-width="3" stroke-miterlimit="10"/>
  </g>
  <g id="nodes">
    <rect x="400" y="465" width="120" height="80" rx="6" ry="6" fill="#ffe6cc" stroke="#ff8000" stroke-width="2"/>
    <text x="460" y="488" text-anchor="middle" dominant-baseline="middle" font-family="Helvetica,Inter,Segoe UI,Arial" font-size="14" font-weight="bold" fill="#ff8000">Patrick wears</text>
    <text x="460" y="505" text-anchor="middle" dominant-baseline="middle" font-family="Helvetica,Inter,Segoe UI,Arial" font-size="14" font-weight="bold" fill="#ff8000">black then</text>
    <text x="460" y="522" text-anchor="middle" dominant-baseline="middle" font-family="Helvetica,Inter,Segoe UI,Arial" font-size="14" font-weight="bold" fill="#ff8000">wears white</text>
    <rect x="40" y="555" width="120" height="60" rx="6" ry="6" fill="#dae8fc" stroke="#6c8ebf" stroke-width="2"/>
    <text x="100" y="585" text-anchor="middle" dominant-baseline="middle" font-family="Helvetica,Inter,Segoe UI,Arial" font-size="16" font-weight="normal" fill="#3399ff">human</text>
    <rect x="940" y="330" width="120" height="60" rx="6" ry="6" fill="#d5e8d4" stroke="#82b366" stroke-width="2"/>
    <text x="1000" y="360" text-anchor="middle" dominant-baseline="middle" font-family="Helvetica,Inter,Segoe UI,Arial" font-size="16" font-weight="normal" fill="#009900">t-shirt B</text>
    <rect x="940" y="570" width="120" height="60" rx="6" ry="6" fill="#d5e8d4" stroke="#82b366" stroke-width="2"/>
    <text x="1000" y="600" text-anchor="middle" dominant-baseline="middle" font-family="Helvetica,Inter,Segoe UI,Arial" font-size="16" font-weight="normal" fill="#009900">t-shirt W</text>
    <rect x="1120" y="520" width="120" height="60" rx="6" ry="6" fill="#dae8fc" stroke="#6c8ebf" stroke-width="2"/>
    <text x="1180" y="550" text-anchor="middle" dominant-baseline="middle" font-family="Helvetica,Inter,Segoe UI,Arial" font-size="16" font-weight="normal" fill="#3399ff">t-shirt</text>
    <rect x="1120" y="380" width="120" height="60" rx="6" ry="6" fill="#dae8fc" stroke="#6c8ebf" stroke-width="2"/>
    <text x="1180" y="410" text-anchor="middle" dominant-baseline="middle" font-family="Helvetica,Inter,Segoe UI,Arial" font-size="16" font-weight="normal" fill="#3399ff">black</text>
    <rect x="1120" y="620" width="120" height="60" rx="6" ry="6" fill="#dae8fc" stroke="#6c8ebf" stroke-width="2"/>
    <text x="1180" y="650" text-anchor="middle" dominant-baseline="middle" font-family="Helvetica,Inter,Segoe UI,Arial" font-size="16" font-weight="normal" fill="#3399ff">white</text>
    <rect x="1300" y="620" width="120" height="60" rx="6" ry="6" fill="#dae8fc" stroke="#6c8ebf" stroke-width="2"/>
    <text x="1360" y="650" text-anchor="middle" dominant-baseline="middle" font-family="Helvetica,Inter,Segoe UI,Arial" font-size="16" font-weight="normal" fill="#3399ff">color</text>
    <rect x="440" y="250" width="40" height="40" rx="4" ry="4" fill="#ffe6cc" stroke="#ff8000" stroke-width="2"/>
    <text x="460" y="270" text-anchor="middle" dominant-baseline="middle" font-family="Helvetica,Inter,Segoe UI,Arial" font-size="16" font-weight="bold" fill="#ff8000">S</text>
    <rect x="440" y="720" width="40" height="40" rx="4" ry="4" fill="#ffe6cc" stroke="#ff8000" stroke-width="2"/>
    <text x="460" y="740" text-anchor="middle" dominant-baseline="middle" font-family="Helvetica,Inter,Segoe UI,Arial" font-size="16" font-weight="bold" fill="#ff8000">E</text>
    <rect x="580" y="330" width="120" height="60" rx="6" ry="6" fill="#ffe6cc" stroke="#ff8000" stroke-width="2"/>
    <text x="640" y="341" text-anchor="middle" dominant-baseline="middle" font-family="Helvetica,Inter,Segoe UI,Arial" font-size="16" font-weight="bold" fill="#ff8000">Patrick</text>
    <text x="640" y="360" text-anchor="middle" dominant-baseline="middle" font-family="Helvetica,Inter,Segoe UI,Arial" font-size="16" font-weight="bold" fill="#ff8000">wears black</text>
    <text x="640" y="379" text-anchor="middle" dominant-baseline="middle" font-family="Helvetica,Inter,Segoe UI,Arial" font-size="16" font-weight="bold" fill="#ff8000">t-shirt</text>
    <rect x="580" y="475" width="120" height="60" rx="6" ry="6" fill="#ffe6cc" stroke="#ff8000" stroke-width="2"/>
    <text x="640" y="486" text-anchor="middle" dominant-baseline="middle" font-family="Helvetica,Inter,Segoe UI,Arial" font-size="16" font-weight="bold" fill="#ff8000">Patrick</text>
    <text x="640" y="505" text-anchor="middle" dominant-baseline="middle" font-family="Helvetica,Inter,Segoe UI,Arial" font-size="16" font-weight="bold" fill="#ff8000">swaps</text>
    <text x="640" y="524" text-anchor="middle" dominant-baseline="middle" font-family="Helvetica,Inter,Segoe UI,Arial" font-size="16" font-weight="bold" fill="#ff8000">t-shirt</text>
    <rect x="580" y="570" width="120" height="60" rx="6" ry="6" fill="#ffe6cc" stroke="#ff8000" stroke-width="2"/>
    <text x="640" y="581" text-anchor="middle" dominant-baseline="middle" font-family="Helvetica,Inter,Segoe UI,Arial" font-size="16" font-weight="bold" fill="#ff8000">Patrick</text>
    <text x="640" y="600" text-anchor="middle" dominant-baseline="middle" font-family="Helvetica,Inter,Segoe UI,Arial" font-size="16" font-weight="bold" fill="#ff8000">wears white</text>
    <text x="640" y="619" text-anchor="middle" dominant-baseline="middle" font-family="Helvetica,Inter,Segoe UI,Arial" font-size="16" font-weight="bold" fill="#ff8000">t-shirt</text>
    <rect x="760" y="330" width="120" height="60" rx="6" ry="6" fill="#ffe6cc" stroke="#ff8000" stroke-width="2"/>
    <text x="820" y="350" text-anchor="middle" dominant-baseline="middle" font-family="Helvetica,Inter,Segoe UI,Arial" font-size="16" font-weight="bold" fill="#ff8000">Take off</text>
    <text x="820" y="370" text-anchor="middle" dominant-baseline="middle" font-family="Helvetica,Inter,Segoe UI,Arial" font-size="16" font-weight="bold" fill="#ff8000">black</text>
    <rect x="760" y="450" width="120" height="60" rx="6" ry="6" fill="#ffe6cc" stroke="#ff8000" stroke-width="2"/>
    <text x="820" y="470" text-anchor="middle" dominant-baseline="middle" font-family="Helvetica,Inter,Segoe UI,Arial" font-size="16" font-weight="bold" fill="#ff8000">Patrick</text>
    <text x="820" y="490" text-anchor="middle" dominant-baseline="middle" font-family="Helvetica,Inter,Segoe UI,Arial" font-size="16" font-weight="bold" fill="#ff8000">half-naked</text>
    <rect x="760" y="570" width="120" height="60" rx="6" ry="6" fill="#ffe6cc" stroke="#ff8000" stroke-width="2"/>
    <text x="820" y="590" text-anchor="middle" dominant-baseline="middle" font-family="Helvetica,Inter,Segoe UI,Arial" font-size="16" font-weight="bold" fill="#ff8000">Take on</text>
    <text x="820" y="610" text-anchor="middle" dominant-baseline="middle" font-family="Helvetica,Inter,Segoe UI,Arial" font-size="16" font-weight="bold" fill="#ff8000">white</text>
    <rect x="220" y="475" width="120" height="60" rx="6" ry="6" fill="#dae8fc" stroke="#6c8ebf" stroke-width="2"/>
    <text x="280" y="495" text-anchor="middle" dominant-baseline="middle" font-family="Helvetica,Inter,Segoe UI,Arial" font-size="16" font-weight="normal" fill="#3399ff">swap of</text>
    <text x="280" y="515" text-anchor="middle" dominant-baseline="middle" font-family="Helvetica,Inter,Segoe UI,Arial" font-size="16" font-weight="normal" fill="#3399ff">clothing</text>
    <rect x="220" y="555" width="120" height="60" rx="6" ry="6" fill="#d5e8d4" stroke="#82b366" stroke-width="2"/>
    <text x="280" y="585" text-anchor="middle" dominant-baseline="middle" font-family="Helvetica,Inter,Segoe UI,Arial" font-size="16" font-weight="normal" fill="#009900">Patrick</text>
  </g>
</svg>
