<?xml version="1.0" encoding="UTF-8"?>
<svg xmlns="http://www.w3.org/2000/svg" width="1220" height="790" viewBox="0 0 1220 790">
  <!-- ipm-svg meta: generated-by=md-embed@dev hash=4c1f0991 source-file=README.md source-id=170 -->

  <defs>
  </defs>
  <g id="container-shells">
  </g>
  <g id="node-shadows">
    <rect x="400" y="355" width="120" height="80" rx="6" ry="6" fill="#000000" stroke="#000000" stroke-width="2" opacity="0.25" transform="translate(2,3)"/>
    <rect x="652" y="490" width="120" height="60" rx="6" ry="6" fill="#000000" stroke="#000000" stroke-width="2" opacity="0.25" transform="translate(2,3)"/>
    <rect x="220" y="365" width="120" height="60" rx="6" ry="6" fill="#000000" stroke="#000000" stroke-width="2" opacity="0.25" transform="translate(2,3)"/>
    <rect x="40" y="365" width="120" height="60" rx="6" ry="6" fill="#000000" stroke="#000000" stroke-width="2" opacity="0.25" transform="translate(2,3)"/>
    <rect x="880" y="120" width="120" height="60" rx="6" ry="6" fill="#000000" stroke="#000000" stroke-width="2" opacity="0.25" transform="translate(2,3)"/>
    <rect x="880" y="200" width="120" height="60" rx="6" ry="6" fill="#000000" stroke="#000000" stroke-width="2" opacity="0.25" transform="translate(2,3)"/>
    <rect x="1000" y="610" width="120" height="60" rx="6" ry="6" fill="#000000" stroke="#000000" stroke-width="2" opacity="0.25" transform="translate(2,3)"/>
    <rect x="1060" y="220" width="120" height="60" rx="6" ry="6" fill="#000000" stroke="#000000" stroke-width="2" opacity="0.25" transform="translate(2,3)"/>
    <rect x="440" y="40" width="40" height="40" rx="4" ry="4" fill="#000000" stroke="#000000" stroke-width="2" opacity="0.25" transform="translate(2,3)"/>
    <rect x="440" y="710" width="40" height="40" rx="4" ry="4" fill="#000000" stroke="#000000" stroke-width="2" opacity="0.25" transform="translate(2,3)"/>
    <rect x="580" y="270" width="120" height="60" rx="6" ry="6" fill="#000000" stroke="#000000" stroke-width="2" opacity="0.25" transform="translate(2,3)"/>
    <rect x="580" y="390" width="120" height="60" rx="6" ry="6" fill="#000000" stroke="#000000" stroke-width="2" opacity="0.25" transform="translate(2,3)"/>
    <rect x="580" y="610" width="120" height="60" rx="6" ry="6" fill="#000000" stroke="#000000" stroke-width="2" opacity="0.25" transform="translate(2,3)"/>
    <rect x="700" y="170" width="120" height="60" rx="6" ry="6" fill="#000000" stroke="#000000" stroke-width="2" opacity="0.25" transform="translate(2,3)"/>
    <rect x="820" y="610" width="120" height="60" rx="6" ry="6" fill="#000000" stroke="#000000" stroke-width="2" opacity="0.25" transform="translate(2,3)"/>
    <rect x="820" y="270" width="120" height="60" rx="6" ry="6" fill="#000000" stroke="#000000" stroke-width="2" opacity="0.25" transform="translate(2,3)"/>
    <rect x="820" y="390" width="120" height="60" rx="6" ry="6" fill="#000000" stroke="#000000" stroke-width="2" opacity="0.25" transform="translate(2,3)"/>
    <rect x="820" y="510" width="120" height="60" rx="6" ry="6" fill="#000000" stroke="#000000" stroke-width="2" opacity="0.25" transform="translate(2,3)"/>
  </g>
  <g id="edges">
    <g class="edge" data-edge-idx="0" data-edge-base="leadsto" data-edge-from="1" data-edge-to="18">
    <line x1="460.00" y1="440.00" x2="460.00" y2="698.25" stroke="#ff8000" stroke-width="3" />
    <path d="M 460.00 705.00 L 455.50 696.00 L 460.00 698.25 L 464.50 696.00 Z" fill="#ff8000" stroke="#ff8000" stroke-width="3" stroke-miterlimit="10"/>
    </g>
    <g class="edge" data-edge-idx="1" data-edge-base="partof" data-edge-from="11" data-edge-to="1">
    <line x1="345.00" y1="395.00" x2="388.25" y2="395.00" stroke="#82b366" stroke-width="3" />
    <path d="M 395.00 395.00 L 386.00 399.50 L 388.25 395.00 L 386.00 390.50 Z" fill="#82b366" stroke="#82b366" stroke-width="3" stroke-miterlimit="10"/>
    </g>
    <g class="edge" data-edge-idx="2" data-edge-base="expresses" data-edge-from="11" data-edge-to="12">
    <line x1="215.00" y1="395.00" x2="171.75" y2="395.00" stroke="#6c8ebf" stroke-width="3" stroke-dasharray="9 6" />
    <path d="M 165.00 395.00 L 174.00 390.50 L 171.75 395.00 L 174.00 399.50 Z" fill="#6c8ebf" stroke="#6c8ebf" stroke-width="3" stroke-miterlimit="10"/>
    </g>
    <g class="edge" data-edge-idx="3" data-edge-base="expresses" data-edge-from="14" data-edge-to="16">
    <line x1="1005.00" y1="240.00" x2="1048.25" y2="240.00" stroke="#6c8ebf" stroke-width="3" stroke-dasharray="9 6" />
    <path d="M 1055.00 240.00 L 1046.00 244.50 L 1048.25 240.00 L 1046.00 235.50 Z" fill="#6c8ebf" stroke="#6c8ebf" stroke-width="3" stroke-miterlimit="10"/>
    </g>
    <g class="edge" data-edge-idx="4" data-edge-base="expresses" data-edge-from="15" data-edge-to="16">
    <line x1="1060.91" y1="605.00" x2="1117.88" y2="291.64" stroke="#6c8ebf" stroke-width="3" stroke-dasharray="9 6" />
    <path d="M 1119.09 285.00 L 1121.91 294.66 L 1117.88 291.64 L 1113.05 293.05 Z" fill="#6c8ebf" stroke="#6c8ebf" stroke-width="3" stroke-miterlimit="10"/>
    </g>
    <g class="edge" data-edge-idx="5" data-edge-base="leadsto" data-edge-from="17" data-edge-to="1">
    <line x1="460.00" y1="85.00" x2="460.00" y2="343.25" stroke="#ff8000" stroke-width="3" />
    <path d="M 460.00 350.00 L 455.50 341.00 L 460.00 343.25 L 464.50 341.00 Z" fill="#ff8000" stroke="#ff8000" stroke-width="3" stroke-miterlimit="10"/>
    </g>
    <g class="edge" data-edge-idx="6" data-edge-base="partof" data-edge-from="2" data-edge-to="1">
    <line x1="575.00" y1="307.25" x2="528.83" y2="374.19" stroke="#82b366" stroke-width="3" />
    <path d="M 525.00 379.75 L 526.41 369.79 L 528.83 374.19 L 533.81 374.90 Z" fill="#82b366" stroke="#82b366" stroke-width="3" stroke-miterlimit="10"/>
    </g>
    <g class="edge" data-edge-idx="7" data-edge-base="leadsto" data-edge-from="2" data-edge-to="3">
    <line x1="640.00" y1="335.00" x2="640.00" y2="378.25" stroke="#ff8000" stroke-width="3" />
    <path d="M 640.00 385.00 L 635.50 376.00 L 640.00 378.25 L 644.50 376.00 Z" fill="#ff8000" stroke="#ff8000" stroke-width="3" stroke-miterlimit="10"/>
    </g>
    <g class="edge" data-edge-idx="8" data-edge-base="partof" data-edge-from="3" data-edge-to="1">
    <line x1="575.00" y1="412.00" x2="531.75" y2="412.00" stroke="#82b366" stroke-width="3" />
    <path d="M 525.00 412.00 L 534.00 407.50 L 531.75 412.00 L 534.00 416.50 Z" fill="#82b366" stroke="#82b366" stroke-width="3" stroke-miterlimit="10"/>
    </g>
    <g class="edge" data-edge-idx="9" data-edge-base="expresses" data-edge-from="3" data-edge-to="10">
    <line x1="692.75" y1="455.00" x2="706.00" y2="479.09" stroke="#6c8ebf" stroke-width="3" stroke-dasharray="9 6" />
    <path d="M 709.25 485.00 L 700.97 479.28 L 706.00 479.09 L 708.86 474.95 Z" fill="#6c8ebf" stroke="#6c8ebf" stroke-width="3" stroke-miterlimit="10"/>
    </g>
    <g class="edge" data-edge-idx="10" data-edge-base="leadsto" data-edge-from="3" data-edge-to="4">
    <line x1="640.97" y1="455.00" x2="640.07" y2="598.25" stroke="#ff8000" stroke-width="3" />
    <path d="M 640.03 605.00 L 635.59 595.97 L 640.07 598.25 L 644.59 596.03 Z" fill="#ff8000" stroke="#ff8000" stroke-width="3" stroke-miterlimit="10"/>
    </g>
    <g class="edge" data-edge-idx="11" data-edge-base="partof" data-edge-from="4" data-edge-to="1">
    <line x1="575.81" y1="624.56" x2="525.96" y2="440.96" stroke="#82b366" stroke-width="3" />
    <path d="M 524.19 434.44 L 530.89 441.95 L 525.96 440.96 L 522.21 444.31 Z" fill="#82b366" stroke="#82b366" stroke-width="3" stroke-miterlimit="10"/>
    </g>
    <g class="edge" data-edge-idx="12" data-edge-base="expresses" data-edge-from="5" data-edge-to="13">
    <line x1="825.00" y1="191.25" x2="869.60" y2="157.80" stroke="#6c8ebf" stroke-width="3" stroke-dasharray="9 6" />
    <path d="M 875.00 153.75 L 870.50 162.75 L 869.60 157.80 L 865.10 155.55 Z" fill="#6c8ebf" stroke="#6c8ebf" stroke-width="3" stroke-miterlimit="10"/>
    </g>
    <g class="edge" data-edge-idx="13" data-edge-base="expresses" data-edge-from="5" data-edge-to="14">
    <line x1="825.00" y1="215.00" x2="868.25" y2="215.00" stroke="#6c8ebf" stroke-width="3" stroke-dasharray="9 6" />
    <path d="M 875.00 215.00 L 866.00 219.50 L 868.25 215.00 L 866.00 210.50 Z" fill="#6c8ebf" stroke="#6c8ebf" stroke-width="3" stroke-miterlimit="10"/>
    </g>
    <g class="edge" data-edge-idx="14" data-edge-base="partof" data-edge-from="5" data-edge-to="2">
    <line x1="739.00" y1="235.00" x2="708.47" y2="285.88" stroke="#82b366" stroke-width="3" />
    <path d="M 705.00 291.67 L 705.77 281.63 L 708.47 285.88 L 713.49 286.26 Z" fill="#82b366" stroke="#82b366" stroke-width="3" stroke-miterlimit="10"/>
    </g>
    <g class="edge" data-edge-idx="15" data-edge-base="partof" data-edge-from="5" data-edge-to="7">
    <line x1="781.44" y1="235.00" x2="811.17" y2="278.18" stroke="#82b366" stroke-width="3" />
    <path d="M 815.00 283.74 L 806.19 278.88 L 811.17 278.18 L 813.60 273.77 Z" fill="#82b366" stroke="#82b366" stroke-width="3" stroke-miterlimit="10"/>
    </g>
    <g class="edge" data-edge-idx="16" data-edge-base="expresses" data-edge-from="6" data-edge-to="13">
      <line class="edge-ghost" x1="964.00" y1="619.00" x2="856.00" y2="150.00" stroke="#6c8ebf" stroke-width="1" stroke-opacity="0.22" />
      <g class="edge-full" opacity="0">
        <line x1="964.00" y1="619.00" x2="856.00" y2="150.00" stroke="#6c8ebf" stroke-width="3" stroke-dasharray="9 6" />
      </g>
      <g class="edge-stub" data-stub-end="source">
        <line x1="940.00" y1="619.00" x2="964.00" y2="619.00" stroke="#6c8ebf" stroke-width="3" stroke-dasharray="9 6" />
        <g class="edge-badge"><title>Expresses: white t-shirt → t-shirt</title><rect x="957.00" y="612.00" width="14.00" height="14.00" rx="3" fill="#ffffff" stroke="#6c8ebf" stroke-width="1.5" /><text x="964.00" y="619.00" text-anchor="middle" dominant-baseline="central" font-size="11" font-family="Helvetica,Arial,sans-serif" fill="#6c8ebf">2</text></g>
      </g>
      <g class="edge-stub" data-stub-end="target">
        <line x1="856.00" y1="150.00" x2="873.25" y2="150.00" stroke="#6c8ebf" stroke-width="3" stroke-dasharray="9 6" />
    <path d="M 880.00 150.00 L 871.00 154.50 L 873.25 150.00 L 871.00 145.50 Z" fill="#6c8ebf" stroke="#6c8ebf" stroke-width="3" stroke-miterlimit="10"/>
        <g class="edge-badge"><title>Expresses: white t-shirt → t-shirt</title><rect x="849.00" y="143.00" width="14.00" height="14.00" rx="3" fill="#ffffff" stroke="#6c8ebf" stroke-width="1.5" /><text x="856.00" y="150.00" text-anchor="middle" dominant-baseline="central" font-size="11" font-family="Helvetica,Arial,sans-serif" fill="#6c8ebf">2</text></g>
      </g>
    </g>
    <g class="edge" data-edge-idx="17" data-edge-base="expresses" data-edge-from="6" data-edge-to="15">
    <line x1="945.00" y1="640.00" x2="988.25" y2="640.00" stroke="#6c8ebf" stroke-width="3" stroke-dasharray="9 6" />
    <path d="M 995.00 640.00 L 986.00 644.50 L 988.25 640.00 L 986.00 635.50 Z" fill="#6c8ebf" stroke="#6c8ebf" stroke-width="3" stroke-miterlimit="10"/>
    </g>
    <g class="edge" data-edge-idx="18" data-edge-base="partof" data-edge-from="6" data-edge-to="4">
    <line x1="815.00" y1="640.00" x2="711.75" y2="640.00" stroke="#82b366" stroke-width="3" />
    <path d="M 705.00 640.00 L 714.00 635.50 L 711.75 640.00 L 714.00 644.50 Z" fill="#82b366" stroke="#82b366" stroke-width="3" stroke-miterlimit="10"/>
    </g>
    <g class="edge" data-edge-idx="19" data-edge-base="partof" data-edge-from="6" data-edge-to="9">
    <line x1="864.25" y1="605.00" x2="874.98" y2="581.16" stroke="#82b366" stroke-width="3" />
    <path d="M 877.75 575.00 L 878.16 585.05 L 874.98 581.16 L 869.95 581.36 Z" fill="#82b366" stroke="#82b366" stroke-width="3" stroke-miterlimit="10"/>
    </g>
    <g class="edge" data-edge-idx="20" data-edge-base="partof" data-edge-from="7" data-edge-to="3">
    <line x1="815.00" y1="313.12" x2="710.21" y2="399.58" stroke="#82b366" stroke-width="3" />
    <path d="M 705.00 403.88 L 709.08 394.68 L 710.21 399.58 L 714.81 401.62 Z" fill="#82b366" stroke="#82b366" stroke-width="3" stroke-miterlimit="10"/>
    </g>
    <g class="edge" data-edge-idx="21" data-edge-base="leadsto" data-edge-from="7" data-edge-to="8">
    <line x1="880.00" y1="335.00" x2="880.00" y2="378.25" stroke="#ff8000" stroke-width="3" />
    <path d="M 880.00 385.00 L 875.50 376.00 L 880.00 378.25 L 884.50 376.00 Z" fill="#ff8000" stroke="#ff8000" stroke-width="3" stroke-miterlimit="10"/>
    </g>
    <g class="edge" data-edge-idx="22" data-edge-base="partof" data-edge-from="8" data-edge-to="3">
    <line x1="815.00" y1="420.00" x2="711.75" y2="420.00" stroke="#82b366" stroke-width="3" />
    <path d="M 705.00 420.00 L 714.00 415.50 L 711.75 420.00 L 714.00 424.50 Z" fill="#82b366" stroke="#82b366" stroke-width="3" stroke-miterlimit="10"/>
    </g>
    <g class="edge" data-edge-idx="23" data-edge-base="leadsto" data-edge-from="8" data-edge-to="9">
    <line x1="880.00" y1="455.00" x2="880.00" y2="498.25" stroke="#ff8000" stroke-width="3" />
    <path d="M 880.00 505.00 L 875.50 496.00 L 880.00 498.25 L 884.50 496.00 Z" fill="#ff8000" stroke="#ff8000" stroke-width="3" stroke-miterlimit="10"/>
    </g>
    <g class="edge" data-edge-idx="24" data-edge-base="partof" data-edge-from="9" data-edge-to="3">
    <line x1="935.00" y1="537.75" x2="711.16" y2="437.02" stroke="#82b366" stroke-width="3" />
    <path d="M 705.00 434.25 L 715.05 433.84 L 711.16 437.02 L 711.36 442.05 Z" fill="#82b366" stroke="#82b366" stroke-width="3" stroke-miterlimit="10"/>
    </g>
  </g>
  <g id="nodes">
    <rect x="400" y="355" width="120" height="80" rx="6" ry="6" fill="#ffe6cc" stroke="#ff8000" stroke-width="2"/>
    <text x="460" y="378" text-anchor="middle" dominant-baseline="middle" font-family="Helvetica,Inter,Segoe UI,Arial" font-size="14" font-weight="bold" fill="#ff8000">Patrick wears</text>
    <text x="460" y="395" text-anchor="middle" dominant-baseline="middle" font-family="Helvetica,Inter,Segoe UI,Arial" font-size="14" font-weight="bold" fill="#ff8000">black then</text>
    <text x="460" y="412" text-anchor="middle" dominant-baseline="middle" font-family="Helvetica,Inter,Segoe UI,Arial" font-size="14" font-weight="bold" fill="#ff8000">wears white</text>
    <rect x="652" y="490" width="120" height="60" rx="6" ry="6" fill="#dae8fc" stroke="#6c8ebf" stroke-width="2"/>
    <text x="712" y="510" text-anchor="middle" dominant-baseline="middle" font-family="Helvetica,Inter,Segoe UI,Arial" font-size="16" font-weight="normal" fill="#3399ff">swap of</text>
    <text x="712" y="530" text-anchor="middle" dominant-baseline="middle" font-family="Helvetica,Inter,Segoe UI,Arial" font-size="16" font-weight="normal" fill="#3399ff">clothing</text>
    <rect x="220" y="365" width="120" height="60" rx="6" ry="6" fill="#d5e8d4" stroke="#82b366" stroke-width="2"/>
    <text x="280" y="395" text-anchor="middle" dominant-baseline="middle" font-family="Helvetica,Inter,Segoe UI,Arial" font-size="16" font-weight="normal" fill="#009900">Patrick</text>
    <rect x="40" y="365" width="120" height="60" rx="6" ry="6" fill="#dae8fc" stroke="#6c8ebf" stroke-width="2"/>
    <text x="100" y="395" text-anchor="middle" dominant-baseline="middle" font-family="Helvetica,Inter,Segoe UI,Arial" font-size="16" font-weight="normal" fill="#3399ff">human</text>
    <rect x="880" y="120" width="120" height="60" rx="6" ry="6" fill="#dae8fc" stroke="#6c8ebf" stroke-width="2"/>
    <text x="940" y="150" text-anchor="middle" dominant-baseline="middle" font-family="Helvetica,Inter,Segoe UI,Arial" font-size="16" font-weight="normal" fill="#3399ff">t-shirt</text>
    <rect x="880" y="200" width="120" height="60" rx="6" ry="6" fill="#dae8fc" stroke="#6c8ebf" stroke-width="2"/>
    <text x="940" y="230" text-anchor="middle" dominant-baseline="middle" font-family="Helvetica,Inter,Segoe UI,Arial" font-size="16" font-weight="normal" fill="#3399ff">black</text>
    <rect x="1000" y="610" width="120" height="60" rx="6" ry="6" fill="#dae8fc" stroke="#6c8ebf" stroke-width="2"/>
    <text x="1060" y="640" text-anchor="middle" dominant-baseline="middle" font-family="Helvetica,Inter,Segoe UI,Arial" font-size="16" font-weight="normal" fill="#3399ff">white</text>
    <rect x="1060" y="220" width="120" height="60" rx="6" ry="6" fill="#dae8fc" stroke="#6c8ebf" stroke-width="2"/>
    <text x="1120" y="250" text-anchor="middle" dominant-baseline="middle" font-family="Helvetica,Inter,Segoe UI,Arial" font-size="16" font-weight="normal" fill="#3399ff">color</text>
    <rect x="440" y="40" width="40" height="40" rx="4" ry="4" fill="#ffe6cc" stroke="#ff8000" stroke-width="2"/>
    <text x="460" y="60" text-anchor="middle" dominant-baseline="middle" font-family="Helvetica,Inter,Segoe UI,Arial" font-size="16" font-weight="bold" fill="#ff8000">S</text>
    <rect x="440" y="710" width="40" height="40" rx="4" ry="4" fill="#ffe6cc" stroke="#ff8000" stroke-width="2"/>
    <text x="460" y="730" text-anchor="middle" dominant-baseline="middle" font-family="Helvetica,Inter,Segoe UI,Arial" font-size="16" font-weight="bold" fill="#ff8000">E</text>
    <rect x="580" y="270" width="120" height="60" rx="6" ry="6" fill="#ffe6cc" stroke="#ff8000" stroke-width="2"/>
    <text x="640" y="281" text-anchor="middle" dominant-baseline="middle" font-family="Helvetica,Inter,Segoe UI,Arial" font-size="16" font-weight="bold" fill="#ff8000">Patrick</text>
    <text x="640" y="300" text-anchor="middle" dominant-baseline="middle" font-family="Helvetica,Inter,Segoe UI,Arial" font-size="16" font-weight="bold" fill="#ff8000">wears black</text>
    <text x="640" y="319" text-anchor="middle" dominant-baseline="middle" font-family="Helvetica,Inter,Segoe UI,Arial" font-size="16" font-weight="bold" fill="#ff8000">t-shirt</text>
    <rect x="580" y="390" width="120" height="60" rx="6" ry="6" fill="#ffe6cc" stroke="#ff8000" stroke-width="2"/>
    <text x="640" y="401" text-anchor="middle" dominant-baseline="middle" font-family="Helvetica,Inter,Segoe UI,Arial" font-size="16" font-weight="bold" fill="#ff8000">Patrick</text>
    <text x="640" y="420" text-anchor="middle" dominant-baseline="middle" font-family="Helvetica,Inter,Segoe UI,Arial" font-size="16" font-weight="bold" fill="#ff8000">swaps</text>
    <text x="640" y="439" text-anchor="middle" dominant-baseline="middle" font-family="Helvetica,Inter,Segoe UI,Arial" font-size="16" font-weight="bold" fill="#ff8000">t-shirt</text>
    <rect x="580" y="610" width="120" height="60" rx="6" ry="6" fill="#ffe6cc" stroke="#ff8000" stroke-width="2"/>
    <text x="640" y="621" text-anchor="middle" dominant-baseline="middle" font-family="Helvetica,Inter,Segoe UI,Arial" font-size="16" font-weight="bold" fill="#ff8000">Patrick</text>
    <text x="640" y="640" text-anchor="middle" dominant-baseline="middle" font-family="Helvetica,Inter,Segoe UI,Arial" font-size="16" font-weight="bold" fill="#ff8000">wears white</text>
    <text x="640" y="659" text-anchor="middle" dominant-baseline="middle" font-family="Helvetica,Inter,Segoe UI,Arial" font-size="16" font-weight="bold" fill="#ff8000">t-shirt</text>
    <rect x="700" y="170" width="120" height="60" rx="6" ry="6" fill="#d5e8d4" stroke="#82b366" stroke-width="2"/>
    <text x="760" y="190" text-anchor="middle" dominant-baseline="middle" font-family="Helvetica,Inter,Segoe UI,Arial" font-size="16" font-weight="normal" fill="#009900">black</text>
    <text x="760" y="210" text-anchor="middle" dominant-baseline="middle" font-family="Helvetica,Inter,Segoe UI,Arial" font-size="16" font-weight="normal" fill="#009900">t-shirt</text>
    <rect x="820" y="610" width="120" height="60" rx="6" ry="6" fill="#d5e8d4" stroke="#82b366" stroke-width="2"/>
    <text x="880" y="630" text-anchor="middle" dominant-baseline="middle" font-family="Helvetica,Inter,Segoe UI,Arial" font-size="16" font-weight="normal" fill="#009900">white</text>
    <text x="880" y="650" text-anchor="middle" dominant-baseline="middle" font-family="Helvetica,Inter,Segoe UI,Arial" font-size="16" font-weight="normal" fill="#009900">t-shirt</text>
    <rect x="820" y="270" width="120" height="60" rx="6" ry="6" fill="#ffe6cc" stroke="#ff8000" stroke-width="2"/>
    <text x="880" y="290" text-anchor="middle" dominant-baseline="middle" font-family="Helvetica,Inter,Segoe UI,Arial" font-size="16" font-weight="bold" fill="#ff8000">Take off</text>
    <text x="880" y="310" text-anchor="middle" dominant-baseline="middle" font-family="Helvetica,Inter,Segoe UI,Arial" font-size="16" font-weight="bold" fill="#ff8000">black</text>
    <rect x="820" y="390" width="120" height="60" rx="6" ry="6" fill="#ffe6cc" stroke="#ff8000" stroke-width="2"/>
    <text x="880" y="410" text-anchor="middle" dominant-baseline="middle" font-family="Helvetica,Inter,Segoe UI,Arial" font-size="16" font-weight="bold" fill="#ff8000">Patrick</text>
    <text x="880" y="430" text-anchor="middle" dominant-baseline="middle" font-family="Helvetica,Inter,Segoe UI,Arial" font-size="16" font-weight="bold" fill="#ff8000">half-naked</text>
    <rect x="820" y="510" width="120" height="60" rx="6" ry="6" fill="#ffe6cc" stroke="#ff8000" stroke-width="2"/>
    <text x="880" y="530" text-anchor="middle" dominant-baseline="middle" font-family="Helvetica,Inter,Segoe UI,Arial" font-size="16" font-weight="bold" fill="#ff8000">Take on</text>
    <text x="880" y="550" text-anchor="middle" dominant-baseline="middle" font-family="Helvetica,Inter,Segoe UI,Arial" font-size="16" font-weight="bold" fill="#ff8000">white</text>
  </g>
</svg>
