<?xml version="1.0" encoding="UTF-8"?>
<svg xmlns="http://www.w3.org/2000/svg" width="1820" height="1670" viewBox="0 0 1820 1670">
  <!-- ipm-svg meta: generated-by=md-embed@dev hash=caa384f5 source-file=docs/examples/murder-full.md source-id=01 -->

  <defs>
  </defs>
  <g id="container-shells">
  </g>
  <g id="node-shadows">
    <rect x="760" y="120" width="120" height="60" rx="6" ry="6" fill="#000000" stroke="#000000" stroke-width="2" opacity="0.25" transform="translate(2,3)"/>
    <rect x="1300" y="820" width="120" height="60" rx="6" ry="6" fill="#000000" stroke="#000000" stroke-width="2" opacity="0.25" transform="translate(2,3)"/>
    <rect x="1300" y="900" width="120" height="60" rx="6" ry="6" fill="#000000" stroke="#000000" stroke-width="2" opacity="0.25" transform="translate(2,3)"/>
    <rect x="940" y="1120" width="120" height="60" rx="6" ry="6" fill="#000000" stroke="#000000" stroke-width="2" opacity="0.25" transform="translate(2,3)"/>
    <rect x="1120" y="1120" width="120" height="60" rx="6" ry="6" fill="#000000" stroke="#000000" stroke-width="2" opacity="0.25" transform="translate(2,3)"/>
    <rect x="1300" y="1020" width="120" height="60" rx="6" ry="6" fill="#000000" stroke="#000000" stroke-width="2" opacity="0.25" transform="translate(2,3)"/>
    <rect x="1480" y="970" width="120" height="60" rx="6" ry="6" fill="#000000" stroke="#000000" stroke-width="2" opacity="0.25" transform="translate(2,3)"/>
    <rect x="1660" y="870" width="120" height="60" rx="6" ry="6" fill="#000000" stroke="#000000" stroke-width="2" opacity="0.25" transform="translate(2,3)"/>
    <rect x="1300" y="1270" width="120" height="60" rx="6" ry="6" fill="#000000" stroke="#000000" stroke-width="2" opacity="0.25" transform="translate(2,3)"/>
    <rect x="1300" y="1370" width="120" height="60" rx="6" ry="6" fill="#000000" stroke="#000000" stroke-width="2" opacity="0.25" transform="translate(2,3)"/>
    <rect x="1480" y="1170" width="120" height="60" rx="6" ry="6" fill="#000000" stroke="#000000" stroke-width="2" opacity="0.25" transform="translate(2,3)"/>
    <rect x="760" y="735" width="120" height="200" rx="6" ry="6" fill="#000000" stroke="#000000" stroke-width="2" opacity="0.25" transform="translate(2,3)"/>
    <rect x="1660" y="970" width="120" height="60" rx="6" ry="6" fill="#000000" stroke="#000000" stroke-width="2" opacity="0.25" transform="translate(2,3)"/>
    <rect x="1660" y="1070" width="120" height="60" rx="6" ry="6" fill="#000000" stroke="#000000" stroke-width="2" opacity="0.25" transform="translate(2,3)"/>
    <rect x="1120" y="240" width="120" height="60" rx="6" ry="6" fill="#000000" stroke="#000000" stroke-width="2" opacity="0.25" transform="translate(2,3)"/>
    <rect x="1120" y="340" width="120" height="60" rx="6" ry="6" fill="#000000" stroke="#000000" stroke-width="2" opacity="0.25" transform="translate(2,3)"/>
    <rect x="800" y="40" width="40" height="40" rx="4" ry="4" fill="#000000" stroke="#000000" stroke-width="2" opacity="0.25" transform="translate(2,3)"/>
    <rect x="800" y="1590" width="40" height="40" rx="4" ry="4" fill="#000000" stroke="#000000" stroke-width="2" opacity="0.25" transform="translate(2,3)"/>
    <rect x="760" y="1490" width="120" height="60" rx="6" ry="6" fill="#000000" stroke="#000000" stroke-width="2" opacity="0.25" transform="translate(2,3)"/>
    <rect x="940" y="380" width="120" height="80" rx="6" ry="6" fill="#000000" stroke="#000000" stroke-width="2" opacity="0.25" transform="translate(2,3)"/>
    <rect x="1120" y="550" width="120" height="60" rx="6" ry="6" fill="#000000" stroke="#000000" stroke-width="2" opacity="0.25" transform="translate(2,3)"/>
    <rect x="1300" y="500" width="120" height="60" rx="6" ry="6" fill="#000000" stroke="#000000" stroke-width="2" opacity="0.25" transform="translate(2,3)"/>
    <rect x="1300" y="600" width="120" height="60" rx="6" ry="6" fill="#000000" stroke="#000000" stroke-width="2" opacity="0.25" transform="translate(2,3)"/>
    <rect x="940" y="800" width="120" height="100" rx="6" ry="6" fill="#000000" stroke="#000000" stroke-width="2" opacity="0.25" transform="translate(2,3)"/>
    <rect x="1120" y="740" width="120" height="60" rx="6" ry="6" fill="#000000" stroke="#000000" stroke-width="2" opacity="0.25" transform="translate(2,3)"/>
  </g>
  <g id="edges">
    <line x1="820.00" y1="184.00" x2="820.00" y2="724.25" stroke="#ff8000" stroke-width="3" />
    <path d="M 820.00 731.00 L 815.50 722.00 L 820.00 724.25 L 824.50 722.00 Z" fill="#ff8000" stroke="#ff8000" stroke-width="3" stroke-miterlimit="10"/>
    <line x1="820.00" y1="446.74" x2="820.00" y2="461.26" stroke="#ffd8b2" stroke-width="3" stroke-linecap="round" />
    <text x="820" y="454" text-anchor="middle" dominant-baseline="middle" font-family="Helvetica,Inter,Segoe UI,Arial" font-size="11" fill="#ff8000">then</text>
    <line x1="1063.96" y1="1167.41" x2="1109.37" y2="1160.59" stroke="#6c8ebf" stroke-width="3" stroke-dasharray="9 6" />
    <path d="M 1116.04 1159.59 L 1107.81 1165.38 L 1109.37 1160.59 L 1106.48 1156.48 Z" fill="#6c8ebf" stroke="#6c8ebf" stroke-width="3" stroke-miterlimit="10"/>
    <line x1="1060.59" y1="1166.87" x2="1111.41" y2="1159.13" stroke="#d2ddeb" stroke-width="3" stroke-linecap="round" />
    <text x="1086" y="1163" text-anchor="middle" dominant-baseline="middle" font-family="Helvetica,Inter,Segoe UI,Arial" font-size="11" fill="#6c8ebf">
      <title>example of</title>exam...
    </text>
    <line x1="984.18" y1="1116.38" x2="884.58" y2="904.73" stroke="#82b366" stroke-width="3" />
    <path d="M 881.70 898.62 L 889.61 904.85 L 884.58 904.73 L 881.46 908.68 Z" fill="#82b366" stroke="#82b366" stroke-width="3" stroke-miterlimit="10"/>
    <line x1="937.42" y1="1017.26" x2="930.58" y2="1002.74" stroke="#d9e8d1" stroke-width="3" stroke-linecap="round" />
    <text x="934" y="1010" text-anchor="middle" dominant-baseline="middle" font-family="Helvetica,Inter,Segoe UI,Arial" font-size="11" fill="#82b366">
      <title>contains</title>cont...
    </text>
    <line x1="1060.43" y1="1152.02" x2="1118.85" y2="608.69" stroke="#6c8ebf" stroke-width="3" stroke-dasharray="9 6" />
    <path d="M 1119.57 601.98 L 1123.08 611.41 L 1118.85 608.69 L 1114.14 610.44 Z" fill="#6c8ebf" stroke="#6c8ebf" stroke-width="3" stroke-miterlimit="10"/>
    <line x1="1243.30" y1="1129.74" x2="1307.22" y2="1086.07" stroke="#6c8ebf" stroke-width="3" stroke-dasharray="9 6" />
    <path d="M 1312.79 1082.26 L 1307.90 1091.05 L 1307.22 1086.07 L 1302.83 1083.62 Z" fill="#6c8ebf" stroke="#6c8ebf" stroke-width="3" stroke-miterlimit="10"/>
    <line x1="1264.19" y1="1114.26" x2="1285.81" y2="1099.74" stroke="#d2ddeb" stroke-width="3" stroke-linecap="round" />
    <text x="1275" y="1107" text-anchor="middle" dominant-baseline="middle" font-family="Helvetica,Inter,Segoe UI,Arial" font-size="11" fill="#6c8ebf">
      <title>example of</title>exam...
    </text>
    <line x1="1242.50" y1="1153.12" x2="1329.28" y2="1261.61" stroke="#6c8ebf" stroke-width="3" stroke-dasharray="9 6" />
    <path d="M 1333.50 1266.88 L 1324.37 1262.66 L 1329.28 1261.61 L 1331.39 1257.04 Z" fill="#6c8ebf" stroke="#6c8ebf" stroke-width="3" stroke-miterlimit="10"/>
    <line x1="1279.15" y1="1199.74" x2="1290.85" y2="1214.26" stroke="#d2ddeb" stroke-width="3" stroke-linecap="round" />
    <text x="1285" y="1207" text-anchor="middle" dominant-baseline="middle" font-family="Helvetica,Inter,Segoe UI,Arial" font-size="11" fill="#6c8ebf">
      <title>answers question</title>answ...
    </text>
    <line x1="1241.84" y1="1171.55" x2="1339.54" y2="1360.45" stroke="#6c8ebf" stroke-width="3" stroke-dasharray="9 6" />
    <path d="M 1342.65 1366.45 L 1334.51 1360.52 L 1339.54 1360.45 L 1342.51 1356.39 Z" fill="#6c8ebf" stroke="#6c8ebf" stroke-width="3" stroke-miterlimit="10"/>
    <line x1="1286.24" y1="1257.74" x2="1293.76" y2="1272.26" stroke="#d2ddeb" stroke-width="3" stroke-linecap="round" />
    <text x="1290" y="1265" text-anchor="middle" dominant-baseline="middle" font-family="Helvetica,Inter,Segoe UI,Arial" font-size="11" fill="#6c8ebf">
      <title>involves</title>invo...
    </text>
    <line x1="1423.81" y1="1036.79" x2="1469.75" y2="1022.25" stroke="#6c8ebf" stroke-width="3" stroke-dasharray="9 6" />
    <path d="M 1476.19 1020.21 L 1468.97 1027.21 L 1469.75 1022.25 L 1466.25 1018.63 Z" fill="#6c8ebf" stroke="#6c8ebf" stroke-width="3" stroke-miterlimit="10"/>
    <line x1="1422.15" y1="1036.26" x2="1469.85" y2="1021.74" stroke="#d2ddeb" stroke-width="3" stroke-linecap="round" />
    <text x="1446" y="1029" text-anchor="middle" dominant-baseline="middle" font-family="Helvetica,Inter,Segoe UI,Arial" font-size="11" fill="#6c8ebf">
      <title>involves</title>invo...
    </text>
    <line x1="1422.62" y1="1065.02" x2="1506.86" y2="1161.89" stroke="#6c8ebf" stroke-width="3" stroke-dasharray="9 6" />
    <path d="M 1511.29 1166.98 L 1501.99 1163.14 L 1506.86 1161.89 L 1508.78 1157.24 Z" fill="#6c8ebf" stroke="#6c8ebf" stroke-width="3" stroke-miterlimit="10"/>
    <line x1="1457.65" y1="1105.74" x2="1470.35" y2="1120.26" stroke="#d2ddeb" stroke-width="3" stroke-linecap="round" />
    <text x="1464" y="1113" text-anchor="middle" dominant-baseline="middle" font-family="Helvetica,Inter,Segoe UI,Arial" font-size="11" fill="#6c8ebf">
      <title>answers question</title>answ...
    </text>
    <line x1="1603.30" y1="979.74" x2="1667.22" y2="936.07" stroke="#6c8ebf" stroke-width="3" stroke-dasharray="9 6" />
    <path d="M 1672.79 932.26 L 1667.90 941.05 L 1667.22 936.07 L 1662.83 933.62 Z" fill="#6c8ebf" stroke="#6c8ebf" stroke-width="3" stroke-miterlimit="10"/>
    <line x1="1624.19" y1="964.26" x2="1645.81" y2="949.74" stroke="#d2ddeb" stroke-width="3" stroke-linecap="round" />
    <text x="1635" y="957" text-anchor="middle" dominant-baseline="middle" font-family="Helvetica,Inter,Segoe UI,Arial" font-size="11" fill="#6c8ebf">
      <title>kind of</title>kind...
    </text>
    <line x1="1604.00" y1="1000.00" x2="1649.25" y2="1000.00" stroke="#6c8ebf" stroke-width="3" stroke-dasharray="9 6" />
    <path d="M 1656.00 1000.00 L 1647.00 1004.50 L 1649.25 1000.00 L 1647.00 995.50 Z" fill="#6c8ebf" stroke="#6c8ebf" stroke-width="3" stroke-miterlimit="10"/>
    <line x1="1600.59" y1="1000.00" x2="1651.41" y2="1000.00" stroke="#d2ddeb" stroke-width="3" stroke-linecap="round" />
    <text x="1626" y="1000" text-anchor="middle" dominant-baseline="middle" font-family="Helvetica,Inter,Segoe UI,Arial" font-size="11" fill="#6c8ebf">
      <title>used for</title>used...
    </text>
    <line x1="1603.30" y1="1020.26" x2="1667.22" y2="1063.93" stroke="#6c8ebf" stroke-width="3" stroke-dasharray="9 6" />
    <path d="M 1672.79 1067.74 L 1662.83 1066.38 L 1667.22 1063.93 L 1667.90 1058.95 Z" fill="#6c8ebf" stroke="#6c8ebf" stroke-width="3" stroke-miterlimit="10"/>
    <line x1="1624.19" y1="1033.74" x2="1645.81" y2="1048.26" stroke="#d2ddeb" stroke-width="3" stroke-linecap="round" />
    <text x="1635" y="1041" text-anchor="middle" dominant-baseline="middle" font-family="Helvetica,Inter,Segoe UI,Arial" font-size="11" fill="#6c8ebf">
      <title>used for</title>used...
    </text>
    <line x1="820.00" y1="939.00" x2="820.00" y2="1479.25" stroke="#ff8000" stroke-width="3" />
    <path d="M 820.00 1486.00 L 815.50 1477.00 L 820.00 1479.25 L 824.50 1477.00 Z" fill="#ff8000" stroke="#ff8000" stroke-width="3" stroke-miterlimit="10"/>
    <line x1="820.00" y1="1201.74" x2="820.00" y2="1216.26" stroke="#ffd8b2" stroke-width="3" stroke-linecap="round" />
    <text x="820" y="1209" text-anchor="middle" dominant-baseline="middle" font-family="Helvetica,Inter,Segoe UI,Arial" font-size="11" fill="#ff8000">then</text>
    <line x1="1119.72" y1="291.99" x2="1060.76" y2="1121.28" stroke="#82b366" stroke-width="3" />
    <path d="M 1060.28 1128.01 L 1056.43 1118.71 L 1060.76 1121.28 L 1065.41 1119.35 Z" fill="#82b366" stroke="#82b366" stroke-width="3" stroke-miterlimit="10"/>
    <line x1="1118.46" y1="255.69" x2="1064.13" y2="386.08" stroke="#82b366" stroke-width="3" />
    <path d="M 1061.54 392.31 L 1060.85 382.27 L 1064.13 386.08 L 1069.15 385.73 Z" fill="#82b366" stroke="#82b366" stroke-width="3" stroke-miterlimit="10"/>
    <line x1="1119.57" y1="273.98" x2="1061.17" y2="809.31" stroke="#82b366" stroke-width="3" />
    <path d="M 1060.43 816.02 L 1056.94 806.59 L 1061.17 809.31 L 1065.88 807.56 Z" fill="#82b366" stroke="#82b366" stroke-width="3" stroke-miterlimit="10"/>
    <line x1="1180.00" y1="304.00" x2="1180.00" y2="729.25" stroke="#82b366" stroke-width="3" />
    <path d="M 1180.00 736.00 L 1175.50 727.00 L 1180.00 729.25 L 1184.50 727.00 Z" fill="#82b366" stroke="#82b366" stroke-width="3" stroke-miterlimit="10"/>
    <line x1="1119.68" y1="391.99" x2="1060.85" y2="1133.28" stroke="#82b366" stroke-width="3" />
    <path d="M 1060.32 1140.01 L 1056.54 1130.68 L 1060.85 1133.28 L 1065.51 1131.40 Z" fill="#82b366" stroke="#82b366" stroke-width="3" stroke-miterlimit="10"/>
    <line x1="1117.35" y1="355.00" x2="1067.11" y2="411.94" stroke="#82b366" stroke-width="3" />
    <path d="M 1062.65 417.00 L 1065.23 407.27 L 1067.11 411.94 L 1071.98 413.23 Z" fill="#82b366" stroke="#82b366" stroke-width="3" stroke-miterlimit="10"/>
    <line x1="1119.49" y1="373.97" x2="1061.36" y2="829.34" stroke="#82b366" stroke-width="3" />
    <path d="M 1060.51 836.03 L 1057.18 826.53 L 1061.36 829.34 L 1066.11 827.67 Z" fill="#82b366" stroke="#82b366" stroke-width="3" stroke-miterlimit="10"/>
    <line x1="1180.00" y1="404.00" x2="1180.00" y2="729.25" stroke="#82b366" stroke-width="3" />
    <path d="M 1180.00 736.00 L 1175.50 727.00 L 1180.00 729.25 L 1184.50 727.00 Z" fill="#82b366" stroke="#82b366" stroke-width="3" stroke-miterlimit="10"/>
    <line x1="820.00" y1="84.00" x2="820.00" y2="109.25" stroke="#ff8000" stroke-width="3" />
    <path d="M 820.00 116.00 L 815.50 107.00 L 820.00 109.25 L 824.50 107.00 Z" fill="#ff8000" stroke="#ff8000" stroke-width="3" stroke-miterlimit="10"/>
    <line x1="820.00" y1="1554.00" x2="820.00" y2="1579.25" stroke="#ff8000" stroke-width="3" />
    <path d="M 820.00 1586.00 L 815.50 1577.00 L 820.00 1579.25 L 824.50 1577.00 Z" fill="#ff8000" stroke="#ff8000" stroke-width="3" stroke-miterlimit="10"/>
    <line x1="985.20" y1="463.79" x2="883.44" y2="764.82" stroke="#82b366" stroke-width="3" />
    <path d="M 881.28 771.21 L 879.90 761.24 L 883.44 764.82 L 888.43 764.13 Z" fill="#82b366" stroke="#82b366" stroke-width="3" stroke-miterlimit="10"/>
    <line x1="936.46" y1="605.74" x2="931.54" y2="620.26" stroke="#d9e8d1" stroke-width="3" stroke-linecap="round" />
    <text x="934" y="613" text-anchor="middle" dominant-baseline="middle" font-family="Helvetica,Inter,Segoe UI,Arial" font-size="11" fill="#82b366">
      <title>involves</title>invo...
    </text>
    <line x1="1061.81" y1="447.57" x2="1115.13" y2="552.42" stroke="#6c8ebf" stroke-width="3" stroke-dasharray="9 6" />
    <path d="M 1118.19 558.43 L 1110.10 552.45 L 1115.13 552.42 L 1118.12 548.37 Z" fill="#6c8ebf" stroke="#6c8ebf" stroke-width="3" stroke-miterlimit="10"/>
    <line x1="1000.00" y1="464.00" x2="1000.00" y2="789.25" stroke="#ff8000" stroke-width="3" />
    <path d="M 1000.00 796.00 L 995.50 787.00 L 1000.00 789.25 L 1004.50 787.00 Z" fill="#ff8000" stroke="#ff8000" stroke-width="3" stroke-miterlimit="10"/>
    <line x1="1243.81" y1="566.79" x2="1289.75" y2="552.25" stroke="#6c8ebf" stroke-width="3" stroke-dasharray="9 6" />
    <path d="M 1296.19 550.21 L 1288.97 557.21 L 1289.75 552.25 L 1286.25 548.63 Z" fill="#6c8ebf" stroke="#6c8ebf" stroke-width="3" stroke-miterlimit="10"/>
    <line x1="1242.15" y1="566.26" x2="1289.85" y2="551.74" stroke="#d2ddeb" stroke-width="3" stroke-linecap="round" />
    <text x="1266" y="559" text-anchor="middle" dominant-baseline="middle" font-family="Helvetica,Inter,Segoe UI,Arial" font-size="11" fill="#6c8ebf">
      <title>answers question</title>answ...
    </text>
    <line x1="1243.81" y1="593.21" x2="1289.75" y2="607.75" stroke="#6c8ebf" stroke-width="3" stroke-dasharray="9 6" />
    <path d="M 1296.19 609.79 L 1286.25 611.37 L 1289.75 607.75 L 1288.97 602.79 Z" fill="#6c8ebf" stroke="#6c8ebf" stroke-width="3" stroke-miterlimit="10"/>
    <line x1="1242.15" y1="592.74" x2="1289.85" y2="607.26" stroke="#d2ddeb" stroke-width="3" stroke-linecap="round" />
    <text x="1266" y="600" text-anchor="middle" dominant-baseline="middle" font-family="Helvetica,Inter,Segoe UI,Arial" font-size="11" fill="#6c8ebf">
      <title>involves</title>invo...
    </text>
    <line x1="1000.00" y1="904.00" x2="1000.00" y2="1109.25" stroke="#ff8000" stroke-width="3" />
    <path d="M 1000.00 1116.00 L 995.50 1107.00 L 1000.00 1109.25 L 1004.50 1107.00 Z" fill="#ff8000" stroke="#ff8000" stroke-width="3" stroke-miterlimit="10"/>
    <line x1="936.03" y1="842.00" x2="890.67" y2="836.33" stroke="#82b366" stroke-width="3" />
    <path d="M 883.97 835.50 L 893.46 832.15 L 890.67 836.33 L 892.34 841.08 Z" fill="#82b366" stroke="#82b366" stroke-width="3" stroke-miterlimit="10"/>
    <line x1="938.41" y1="842.31" x2="887.59" y2="835.69" stroke="#d9e8d1" stroke-width="3" stroke-linecap="round" />
    <text x="913" y="839" text-anchor="middle" dominant-baseline="middle" font-family="Helvetica,Inter,Segoe UI,Arial" font-size="11" fill="#82b366">
      <title>contains</title>cont...
    </text>
    <line x1="1060.84" y1="856.09" x2="1117.75" y2="590.51" stroke="#6c8ebf" stroke-width="3" stroke-dasharray="9 6" />
    <path d="M 1119.16 583.91 L 1121.68 593.65 L 1117.75 590.51 L 1112.88 591.77 Z" fill="#6c8ebf" stroke="#6c8ebf" stroke-width="3" stroke-miterlimit="10"/>
    <line x1="1242.32" y1="761.25" x2="1293.75" y2="833.25" stroke="#6c8ebf" stroke-width="3" stroke-dasharray="9 6" />
    <path d="M 1297.68 838.75 L 1288.78 834.04 L 1293.75 833.25 L 1296.11 828.81 Z" fill="#6c8ebf" stroke="#6c8ebf" stroke-width="3" stroke-miterlimit="10"/>
    <line x1="1242.52" y1="785.11" x2="1328.91" y2="891.65" stroke="#6c8ebf" stroke-width="3" stroke-dasharray="9 6" />
    <path d="M 1333.16 896.89 L 1323.99 892.74 L 1328.91 891.65 L 1330.98 887.07 Z" fill="#6c8ebf" stroke="#6c8ebf" stroke-width="3" stroke-miterlimit="10"/>
    <line x1="1144.32" y1="802.70" x2="1067.92" y2="872.74" stroke="#82b366" stroke-width="3" />
    <path d="M 1062.95 877.30 L 1066.54 867.90 L 1067.92 872.74 L 1072.62 874.53 Z" fill="#82b366" stroke="#82b366" stroke-width="3" stroke-miterlimit="10"/>
  </g>
  <g id="nodes">
    <rect x="760" y="120" width="120" height="60" rx="6" ry="6" fill="#ffe6cc" stroke="#ff8000" stroke-width="2"/>
    <text x="820" y="131" text-anchor="middle" dominant-baseline="middle" font-family="Helvetica,Inter,Segoe UI,Arial" font-size="16" font-weight="bold" fill="#ff8000">get the</text>
    <text x="820" y="150" text-anchor="middle" dominant-baseline="middle" font-family="Helvetica,Inter,Segoe UI,Arial" font-size="16" font-weight="bold" fill="#ff8000">party</text>
    <text x="820" y="169" text-anchor="middle" dominant-baseline="middle" font-family="Helvetica,Inter,Segoe UI,Arial" font-size="16" font-weight="bold" fill="#ff8000">started</text>
    <rect x="1300" y="820" width="120" height="60" rx="6" ry="6" fill="#dae8fc" stroke="#6c8ebf" stroke-width="2"/>
    <text x="1360" y="850" text-anchor="middle" dominant-baseline="middle" font-family="Helvetica,Inter,Segoe UI,Arial" font-size="16" font-weight="normal" fill="#3399ff">marriage</text>
    <rect x="1300" y="900" width="120" height="60" rx="6" ry="6" fill="#dae8fc" stroke="#6c8ebf" stroke-width="2"/>
    <text x="1360" y="930" text-anchor="middle" dominant-baseline="middle" font-family="Helvetica,Inter,Segoe UI,Arial" font-size="16" font-weight="normal" fill="#3399ff">refusal</text>
    <rect x="940" y="1120" width="120" height="60" rx="6" ry="6" fill="#ffe6cc" stroke="#ff8000" stroke-width="2"/>
    <text x="1000" y="1133" text-anchor="middle" dominant-baseline="middle" font-family="Helvetica,Inter,Segoe UI,Arial" font-size="14" font-weight="bold" fill="#ff8000">Professor Plum</text>
    <text x="1000" y="1150" text-anchor="middle" dominant-baseline="middle" font-family="Helvetica,Inter,Segoe UI,Arial" font-size="14" font-weight="bold" fill="#ff8000">murders Miss</text>
    <text x="1000" y="1167" text-anchor="middle" dominant-baseline="middle" font-family="Helvetica,Inter,Segoe UI,Arial" font-size="14" font-weight="bold" fill="#ff8000">Scarlet</text>
    <rect x="1120" y="1120" width="120" height="60" rx="6" ry="6" fill="#dae8fc" stroke="#6c8ebf" stroke-width="2"/>
    <text x="1180" y="1140" text-anchor="middle" dominant-baseline="middle" font-family="Helvetica,Inter,Segoe UI,Arial" font-size="16" font-weight="normal" fill="#3399ff">murder by</text>
    <text x="1180" y="1160" text-anchor="middle" dominant-baseline="middle" font-family="Helvetica,Inter,Segoe UI,Arial" font-size="16" font-weight="normal" fill="#3399ff">subtle knife</text>
    <rect x="1300" y="1020" width="120" height="60" rx="6" ry="6" fill="#dae8fc" stroke="#6c8ebf" stroke-width="2"/>
    <text x="1360" y="1040" text-anchor="middle" dominant-baseline="middle" font-family="Helvetica,Inter,Segoe UI,Arial" font-size="16" font-weight="normal" fill="#3399ff">use of</text>
    <text x="1360" y="1060" text-anchor="middle" dominant-baseline="middle" font-family="Helvetica,Inter,Segoe UI,Arial" font-size="16" font-weight="normal" fill="#3399ff">subtle knife</text>
    <rect x="1480" y="970" width="120" height="60" rx="6" ry="6" fill="#dae8fc" stroke="#6c8ebf" stroke-width="2"/>
    <text x="1540" y="1000" text-anchor="middle" dominant-baseline="middle" font-family="Helvetica,Inter,Segoe UI,Arial" font-size="16" font-weight="normal" fill="#3399ff">subtle knife</text>
    <rect x="1660" y="870" width="120" height="60" rx="6" ry="6" fill="#dae8fc" stroke="#6c8ebf" stroke-width="2"/>
    <text x="1720" y="900" text-anchor="middle" dominant-baseline="middle" font-family="Helvetica,Inter,Segoe UI,Arial" font-size="16" font-weight="normal" fill="#3399ff">knife</text>
    <rect x="1300" y="1270" width="120" height="60" rx="6" ry="6" fill="#dae8fc" stroke="#6c8ebf" stroke-width="2"/>
    <text x="1360" y="1300" text-anchor="middle" dominant-baseline="middle" font-family="Helvetica,Inter,Segoe UI,Arial" font-size="16" font-weight="normal" fill="#3399ff">what action</text>
    <rect x="1300" y="1370" width="120" height="60" rx="6" ry="6" fill="#dae8fc" stroke="#6c8ebf" stroke-width="2"/>
    <text x="1360" y="1400" text-anchor="middle" dominant-baseline="middle" font-family="Helvetica,Inter,Segoe UI,Arial" font-size="16" font-weight="normal" fill="#3399ff">murder</text>
    <rect x="1480" y="1170" width="120" height="60" rx="6" ry="6" fill="#dae8fc" stroke="#6c8ebf" stroke-width="2"/>
    <text x="1540" y="1200" text-anchor="middle" dominant-baseline="middle" font-family="Helvetica,Inter,Segoe UI,Arial" font-size="16" font-weight="normal" fill="#3399ff">how</text>
    <rect x="760" y="735" width="120" height="200" rx="6" ry="6" fill="#ffe6cc" stroke="#ff8000" stroke-width="2"/>
    <text x="820" y="776" text-anchor="middle" dominant-baseline="middle" font-family="Helvetica,Inter,Segoe UI,Arial" font-size="14" font-weight="bold" fill="#ff8000">Professor Plum</text>
    <text x="820" y="793" text-anchor="middle" dominant-baseline="middle" font-family="Helvetica,Inter,Segoe UI,Arial" font-size="14" font-weight="bold" fill="#ff8000">murders Miss</text>
    <text x="820" y="810" text-anchor="middle" dominant-baseline="middle" font-family="Helvetica,Inter,Segoe UI,Arial" font-size="14" font-weight="bold" fill="#ff8000">Scarlet in the</text>
    <text x="820" y="827" text-anchor="middle" dominant-baseline="middle" font-family="Helvetica,Inter,Segoe UI,Arial" font-size="14" font-weight="bold" fill="#ff8000">library with</text>
    <text x="820" y="843" text-anchor="middle" dominant-baseline="middle" font-family="Helvetica,Inter,Segoe UI,Arial" font-size="14" font-weight="bold" fill="#ff8000">the bread</text>
    <text x="820" y="860" text-anchor="middle" dominant-baseline="middle" font-family="Helvetica,Inter,Segoe UI,Arial" font-size="14" font-weight="bold" fill="#ff8000">knife because</text>
    <text x="820" y="877" text-anchor="middle" dominant-baseline="middle" font-family="Helvetica,Inter,Segoe UI,Arial" font-size="14" font-weight="bold" fill="#ff8000">she refused to</text>
    <text x="820" y="894" text-anchor="middle" dominant-baseline="middle" font-family="Helvetica,Inter,Segoe UI,Arial" font-size="14" font-weight="bold" fill="#ff8000">marry him</text>
    <rect x="1660" y="970" width="120" height="60" rx="6" ry="6" fill="#dae8fc" stroke="#6c8ebf" stroke-width="2"/>
    <text x="1720" y="983" text-anchor="middle" dominant-baseline="middle" font-family="Helvetica,Inter,Segoe UI,Arial" font-size="14" font-weight="normal" fill="#3399ff">cutting</text>
    <text x="1720" y="1000" text-anchor="middle" dominant-baseline="middle" font-family="Helvetica,Inter,Segoe UI,Arial" font-size="14" font-weight="normal" fill="#3399ff">interdimensi</text>
    <text x="1720" y="1017" text-anchor="middle" dominant-baseline="middle" font-family="Helvetica,Inter,Segoe UI,Arial" font-size="14" font-weight="normal" fill="#3399ff">onal rifts</text>
    <rect x="1660" y="1070" width="120" height="60" rx="6" ry="6" fill="#dae8fc" stroke="#6c8ebf" stroke-width="2"/>
    <text x="1720" y="1090" text-anchor="middle" dominant-baseline="middle" font-family="Helvetica,Inter,Segoe UI,Arial" font-size="16" font-weight="normal" fill="#3399ff">cutting</text>
    <text x="1720" y="1110" text-anchor="middle" dominant-baseline="middle" font-family="Helvetica,Inter,Segoe UI,Arial" font-size="16" font-weight="normal" fill="#3399ff">bread</text>
    <rect x="1120" y="240" width="120" height="60" rx="6" ry="6" fill="#d5e8d4" stroke="#82b366" stroke-width="2"/>
    <text x="1180" y="260" text-anchor="middle" dominant-baseline="middle" font-family="Helvetica,Inter,Segoe UI,Arial" font-size="16" font-weight="normal" fill="#009900">Professor</text>
    <text x="1180" y="280" text-anchor="middle" dominant-baseline="middle" font-family="Helvetica,Inter,Segoe UI,Arial" font-size="16" font-weight="normal" fill="#009900">Plum</text>
    <rect x="1120" y="340" width="120" height="60" rx="6" ry="6" fill="#d5e8d4" stroke="#82b366" stroke-width="2"/>
    <text x="1180" y="370" text-anchor="middle" dominant-baseline="middle" font-family="Helvetica,Inter,Segoe UI,Arial" font-size="16" font-weight="normal" fill="#009900">Miss Scarlet</text>
    <rect x="800" y="40" width="40" height="40" rx="4" ry="4" fill="#ffe6cc" stroke="#ff8000" stroke-width="2"/>
    <text x="820" y="60" text-anchor="middle" dominant-baseline="middle" font-family="Helvetica,Inter,Segoe UI,Arial" font-size="16" font-weight="bold" fill="#ff8000">S</text>
    <rect x="800" y="1590" width="40" height="40" rx="4" ry="4" fill="#ffe6cc" stroke="#ff8000" stroke-width="2"/>
    <text x="820" y="1610" text-anchor="middle" dominant-baseline="middle" font-family="Helvetica,Inter,Segoe UI,Arial" font-size="16" font-weight="bold" fill="#ff8000">E</text>
    <rect x="760" y="1490" width="120" height="60" rx="6" ry="6" fill="#ffe6cc" stroke="#ff8000" stroke-width="2"/>
    <text x="820" y="1510" text-anchor="middle" dominant-baseline="middle" font-family="Helvetica,Inter,Segoe UI,Arial" font-size="16" font-weight="bold" fill="#ff8000">investigatio</text>
    <text x="820" y="1530" text-anchor="middle" dominant-baseline="middle" font-family="Helvetica,Inter,Segoe UI,Arial" font-size="16" font-weight="bold" fill="#ff8000">n begins</text>
    <rect x="940" y="380" width="120" height="80" rx="6" ry="6" fill="#ffe6cc" stroke="#ff8000" stroke-width="2"/>
    <text x="1000" y="395" text-anchor="middle" dominant-baseline="middle" font-family="Helvetica,Inter,Segoe UI,Arial" font-size="14" font-weight="bold" fill="#ff8000">Professor Plum</text>
    <text x="1000" y="412" text-anchor="middle" dominant-baseline="middle" font-family="Helvetica,Inter,Segoe UI,Arial" font-size="14" font-weight="bold" fill="#ff8000">&amp; Miss</text>
    <text x="1000" y="428" text-anchor="middle" dominant-baseline="middle" font-family="Helvetica,Inter,Segoe UI,Arial" font-size="14" font-weight="bold" fill="#ff8000">Scarlet in the</text>
    <text x="1000" y="445" text-anchor="middle" dominant-baseline="middle" font-family="Helvetica,Inter,Segoe UI,Arial" font-size="14" font-weight="bold" fill="#ff8000">library</text>
    <rect x="1120" y="550" width="120" height="60" rx="6" ry="6" fill="#dae8fc" stroke="#6c8ebf" stroke-width="2"/>
    <text x="1180" y="570" text-anchor="middle" dominant-baseline="middle" font-family="Helvetica,Inter,Segoe UI,Arial" font-size="16" font-weight="normal" fill="#3399ff">In the</text>
    <text x="1180" y="590" text-anchor="middle" dominant-baseline="middle" font-family="Helvetica,Inter,Segoe UI,Arial" font-size="16" font-weight="normal" fill="#3399ff">library</text>
    <rect x="1300" y="500" width="120" height="60" rx="6" ry="6" fill="#dae8fc" stroke="#6c8ebf" stroke-width="2"/>
    <text x="1360" y="530" text-anchor="middle" dominant-baseline="middle" font-family="Helvetica,Inter,Segoe UI,Arial" font-size="16" font-weight="normal" fill="#3399ff">where</text>
    <rect x="1300" y="600" width="120" height="60" rx="6" ry="6" fill="#dae8fc" stroke="#6c8ebf" stroke-width="2"/>
    <text x="1360" y="630" text-anchor="middle" dominant-baseline="middle" font-family="Helvetica,Inter,Segoe UI,Arial" font-size="16" font-weight="normal" fill="#3399ff">library</text>
    <rect x="940" y="800" width="120" height="100" rx="6" ry="6" fill="#ffe6cc" stroke="#ff8000" stroke-width="2"/>
    <text x="1000" y="825" text-anchor="middle" dominant-baseline="middle" font-family="Helvetica,Inter,Segoe UI,Arial" font-size="14" font-weight="bold" fill="#ff8000">Miss Scarlet</text>
    <text x="1000" y="842" text-anchor="middle" dominant-baseline="middle" font-family="Helvetica,Inter,Segoe UI,Arial" font-size="14" font-weight="bold" fill="#ff8000">refuses to</text>
    <text x="1000" y="858" text-anchor="middle" dominant-baseline="middle" font-family="Helvetica,Inter,Segoe UI,Arial" font-size="14" font-weight="bold" fill="#ff8000">marry</text>
    <text x="1000" y="875" text-anchor="middle" dominant-baseline="middle" font-family="Helvetica,Inter,Segoe UI,Arial" font-size="14" font-weight="bold" fill="#ff8000">Professor Plum</text>
    <rect x="1120" y="740" width="120" height="60" rx="6" ry="6" fill="#ffe6cc" stroke="#ff8000" stroke-width="2"/>
    <text x="1180" y="760" text-anchor="middle" dominant-baseline="middle" font-family="Helvetica,Inter,Segoe UI,Arial" font-size="16" font-weight="bold" fill="#ff8000">refusal</text>
    <text x="1180" y="780" text-anchor="middle" dominant-baseline="middle" font-family="Helvetica,Inter,Segoe UI,Arial" font-size="16" font-weight="bold" fill="#ff8000">marriage</text>
  </g>
</svg>
