<?xml version="1.0" encoding="UTF-8"?>
<svg xmlns="http://www.w3.org/2000/svg" width="1460" height="890" viewBox="0 0 1460 890">
  <!-- ipm-svg meta: generated-by=ipm-rpc@v0.0.0-20260607124246-60612769a5a9+dirty hash=1f67c9a1 source-file=docs/examples/tshirt-magic.md source-id=06 -->

  <defs>
  </defs>
  <g id="container-shells">
  </g>
  <g id="node-shadows">
    <rect x="580" y="405" width="120" height="80" rx="6" ry="6" fill="#000000" stroke="#000000" stroke-width="2" opacity="0.25" transform="translate(2,3)"/>
    <rect x="940" y="590" width="120" height="60" rx="6" ry="6" fill="#000000" stroke="#000000" stroke-width="2" opacity="0.25" transform="translate(2,3)"/>
    <rect x="940" y="470" width="120" height="60" rx="6" ry="6" fill="#000000" stroke="#000000" stroke-width="2" opacity="0.25" transform="translate(2,3)"/>
    <rect x="1120" y="220" width="120" height="60" rx="6" ry="6" fill="#000000" stroke="#000000" stroke-width="2" opacity="0.25" transform="translate(2,3)"/>
    <rect x="1120" y="320" width="120" height="60" rx="6" ry="6" fill="#000000" stroke="#000000" stroke-width="2" opacity="0.25" transform="translate(2,3)"/>
    <rect x="1120" y="120" width="120" height="60" rx="6" ry="6" fill="#000000" stroke="#000000" stroke-width="2" opacity="0.25" transform="translate(2,3)"/>
    <rect x="1300" y="220" width="120" height="60" rx="6" ry="6" fill="#000000" stroke="#000000" stroke-width="2" opacity="0.25" transform="translate(2,3)"/>
    <rect x="620" y="40" width="40" height="40" rx="4" ry="4" fill="#000000" stroke="#000000" stroke-width="2" opacity="0.25" transform="translate(2,3)"/>
    <rect x="620" y="810" width="40" height="40" rx="4" ry="4" fill="#000000" stroke="#000000" stroke-width="2" opacity="0.25" transform="translate(2,3)"/>
    <rect x="760" y="270" width="120" height="60" rx="6" ry="6" fill="#000000" stroke="#000000" stroke-width="2" opacity="0.25" transform="translate(2,3)"/>
    <rect x="760" y="590" width="120" height="60" rx="6" ry="6" fill="#000000" stroke="#000000" stroke-width="2" opacity="0.25" transform="translate(2,3)"/>
    <rect x="760" y="710" width="120" height="60" rx="6" ry="6" fill="#000000" stroke="#000000" stroke-width="2" opacity="0.25" transform="translate(2,3)"/>
    <rect x="400" y="415" width="120" height="60" rx="6" ry="6" fill="#000000" stroke="#000000" stroke-width="2" opacity="0.25" transform="translate(2,3)"/>
    <rect x="220" y="415" width="120" height="60" rx="6" ry="6" fill="#000000" stroke="#000000" stroke-width="2" opacity="0.25" transform="translate(2,3)"/>
    <rect x="940" y="170" width="120" height="60" rx="6" ry="6" fill="#000000" stroke="#000000" stroke-width="2" opacity="0.25" transform="translate(2,3)"/>
    <rect x="940" y="270" width="120" height="60" rx="6" ry="6" fill="#000000" stroke="#000000" stroke-width="2" opacity="0.25" transform="translate(2,3)"/>
    <rect x="1120" y="470" width="120" height="60" rx="6" ry="6" fill="#000000" stroke="#000000" stroke-width="2" opacity="0.25" transform="translate(2,3)"/>
  </g>
  <g id="edges">
    <g class="edge" data-edge-idx="0" data-edge-base="leadsto" data-edge-from="1" data-edge-to="17">
    <line x1="640.00" y1="489.00" x2="640.00" y2="799.25" stroke="#ff8000" stroke-width="3" />
    <path d="M 640.00 806.00 L 635.50 797.00 L 640.00 799.25 L 644.50 797.00 Z" fill="#ff8000" stroke="#ff8000" stroke-width="3" stroke-miterlimit="10"/>
    </g>
    <g class="edge" data-edge-idx="1" data-edge-base="expresses" data-edge-from="13" data-edge-to="15">
    <line x1="1242.20" y1="346.66" x2="1294.08" y2="267.97" stroke="#6c8ebf" stroke-width="3" stroke-dasharray="9 6" />
    <path d="M 1297.80 262.34 L 1296.60 272.33 L 1294.08 267.97 L 1289.09 267.38 Z" fill="#6c8ebf" stroke="#6c8ebf" stroke-width="3" stroke-miterlimit="10"/>
    </g>
    <g class="edge" data-edge-idx="2" data-edge-base="expresses" data-edge-from="14" data-edge-to="15">
    <line x1="1242.20" y1="153.34" x2="1294.08" y2="232.03" stroke="#6c8ebf" stroke-width="3" stroke-dasharray="9 6" />
    <path d="M 1297.80 237.66 L 1289.09 232.62 L 1294.08 232.03 L 1296.60 227.67 Z" fill="#6c8ebf" stroke="#6c8ebf" stroke-width="3" stroke-miterlimit="10"/>
    </g>
    <g class="edge" data-edge-idx="3" data-edge-base="leadsto" data-edge-from="16" data-edge-to="1">
    <line x1="640.00" y1="84.00" x2="640.00" y2="394.25" stroke="#ff8000" stroke-width="3" />
    <path d="M 640.00 401.00 L 635.50 392.00 L 640.00 394.25 L 644.50 392.00 Z" fill="#ff8000" stroke="#ff8000" stroke-width="3" stroke-miterlimit="10"/>
    </g>
    <g class="edge" data-edge-idx="4" data-edge-base="partof" data-edge-from="2" data-edge-to="1">
    <line x1="758.22" y1="303.58" x2="704.78" y2="411.37" stroke="#82b366" stroke-width="3" />
    <path d="M 701.78 417.42 L 701.74 407.35 L 704.78 411.37 L 709.81 411.35 Z" fill="#82b366" stroke="#82b366" stroke-width="3" stroke-miterlimit="10"/>
    </g>
    <g class="edge" data-edge-idx="5" data-edge-base="leadsto" data-edge-from="2" data-edge-to="3">
    <line x1="820.00" y1="334.00" x2="820.00" y2="579.25" stroke="#ff8000" stroke-width="3" />
    <path d="M 820.00 586.00 L 815.50 577.00 L 820.00 579.25 L 824.50 577.00 Z" fill="#ff8000" stroke="#ff8000" stroke-width="3" stroke-miterlimit="10"/>
    </g>
    <g class="edge" data-edge-idx="6" data-edge-base="expresses" data-edge-from="2" data-edge-to="9">
    <line x1="883.24" y1="320.34" x2="1111.28" y2="484.71" stroke="#6c8ebf" stroke-width="3" stroke-dasharray="9 6" />
    <path d="M 1116.76 488.66 L 1106.82 487.05 L 1111.28 484.71 L 1112.09 479.75 Z" fill="#6c8ebf" stroke="#6c8ebf" stroke-width="3" stroke-miterlimit="10"/>
    </g>
    <g class="edge" data-edge-idx="7" data-edge-base="partof" data-edge-from="3" data-edge-to="1">
    <line x1="758.70" y1="616.22" x2="703.49" y2="455.17" stroke="#82b366" stroke-width="3" />
    <path d="M 701.30 448.78 L 708.47 455.84 L 703.49 455.17 L 699.96 458.76 Z" fill="#82b366" stroke="#82b366" stroke-width="3" stroke-miterlimit="10"/>
    </g>
    <g class="edge" data-edge-idx="8" data-edge-base="expresses" data-edge-from="3" data-edge-to="10">
    <line x1="883.96" y1="628.41" x2="929.37" y2="621.59" stroke="#6c8ebf" stroke-width="3" stroke-dasharray="9 6" />
    <path d="M 936.04 620.59 L 927.81 626.38 L 929.37 621.59 L 926.48 617.48 Z" fill="#6c8ebf" stroke="#6c8ebf" stroke-width="3" stroke-miterlimit="10"/>
    </g>
    <g class="edge" data-edge-idx="9" data-edge-base="leadsto" data-edge-from="3" data-edge-to="4">
    <line x1="820.00" y1="654.00" x2="820.00" y2="699.25" stroke="#ff8000" stroke-width="3" />
    <path d="M 820.00 706.00 L 815.50 697.00 L 820.00 699.25 L 824.50 697.00 Z" fill="#ff8000" stroke="#ff8000" stroke-width="3" stroke-miterlimit="10"/>
    </g>
    <g class="edge" data-edge-idx="10" data-edge-base="partof" data-edge-from="4" data-edge-to="1">
    <line x1="759.14" y1="736.09" x2="702.32" y2="479.50" stroke="#82b366" stroke-width="3" />
    <path d="M 700.86 472.91 L 707.20 480.72 L 702.32 479.50 L 698.42 482.67 Z" fill="#82b366" stroke="#82b366" stroke-width="3" stroke-miterlimit="10"/>
    </g>
    <g class="edge" data-edge-idx="11" data-edge-base="expresses" data-edge-from="4" data-edge-to="11">
    <line x1="880.94" y1="745.11" x2="937.48" y2="510.45" stroke="#6c8ebf" stroke-width="3" stroke-dasharray="9 6" />
    <path d="M 939.06 503.89 L 941.33 513.69 L 937.48 510.45 L 932.58 511.58 Z" fill="#6c8ebf" stroke="#6c8ebf" stroke-width="3" stroke-miterlimit="10"/>
    </g>
    <g class="edge" data-edge-idx="12" data-edge-base="partof" data-edge-from="5" data-edge-to="1">
    <line x1="524.00" y1="445.00" x2="569.25" y2="445.00" stroke="#82b366" stroke-width="3" />
    <path d="M 576.00 445.00 L 567.00 449.50 L 569.25 445.00 L 567.00 440.50 Z" fill="#82b366" stroke="#82b366" stroke-width="3" stroke-miterlimit="10"/>
    </g>
    <g class="edge" data-edge-idx="13" data-edge-base="expresses" data-edge-from="5" data-edge-to="6">
    <line x1="396.00" y1="445.00" x2="350.75" y2="445.00" stroke="#6c8ebf" stroke-width="3" stroke-dasharray="9 6" />
    <path d="M 344.00 445.00 L 353.00 440.50 L 350.75 445.00 L 353.00 449.50 Z" fill="#6c8ebf" stroke="#6c8ebf" stroke-width="3" stroke-miterlimit="10"/>
    </g>
    <g class="edge" data-edge-idx="14" data-edge-base="expresses" data-edge-from="7" data-edge-to="12">
    <line x1="1063.53" y1="210.88" x2="1110.51" y2="235.94" stroke="#6c8ebf" stroke-width="3" stroke-dasharray="9 6" />
    <path d="M 1116.47 239.12 L 1106.41 238.85 L 1110.51 235.94 L 1110.65 230.91 Z" fill="#6c8ebf" stroke="#6c8ebf" stroke-width="3" stroke-miterlimit="10"/>
    </g>
    <g class="edge" data-edge-idx="15" data-edge-base="expresses" data-edge-from="7" data-edge-to="14">
    <line x1="1063.30" y1="188.74" x2="1111.12" y2="156.07" stroke="#6c8ebf" stroke-width="3" stroke-dasharray="9 6" />
    <path d="M 1116.70 152.26 L 1111.81 161.05 L 1111.12 156.07 L 1106.73 153.62 Z" fill="#6c8ebf" stroke="#6c8ebf" stroke-width="3" stroke-miterlimit="10"/>
    </g>
    <g class="edge" data-edge-idx="16" data-edge-base="partof" data-edge-from="7" data-edge-to="2">
    <line x1="937.80" y1="194.34" x2="885.92" y2="273.03" stroke="#82b366" stroke-width="3" />
    <path d="M 882.20 278.66 L 883.40 268.67 L 885.92 273.03 L 890.91 273.62 Z" fill="#82b366" stroke="#82b366" stroke-width="3" stroke-miterlimit="10"/>
    </g>
    <g class="edge" data-edge-idx="17" data-edge-base="partof" data-edge-from="7" data-edge-to="4">
    <line x1="939.54" y1="212.97" x2="881.23" y2="720.32" stroke="#82b366" stroke-width="3" />
    <path d="M 880.46 727.03 L 877.01 717.57 L 881.23 720.32 L 885.96 718.60 Z" fill="#82b366" stroke="#82b366" stroke-width="3" stroke-miterlimit="10"/>
    </g>
    <g class="edge" data-edge-idx="18" data-edge-base="expresses" data-edge-from="8" data-edge-to="12">
    <line x1="1063.53" y1="289.12" x2="1110.51" y2="264.06" stroke="#6c8ebf" stroke-width="3" stroke-dasharray="9 6" />
    <path d="M 1116.47 260.88 L 1110.65 269.09 L 1110.51 264.06 L 1106.41 261.15 Z" fill="#6c8ebf" stroke="#6c8ebf" stroke-width="3" stroke-miterlimit="10"/>
    </g>
    <g class="edge" data-edge-idx="19" data-edge-base="expresses" data-edge-from="8" data-edge-to="13">
    <line x1="1063.30" y1="311.26" x2="1111.12" y2="343.93" stroke="#6c8ebf" stroke-width="3" stroke-dasharray="9 6" />
    <path d="M 1116.70 347.74 L 1106.73 346.38 L 1111.12 343.93 L 1111.81 338.95 Z" fill="#6c8ebf" stroke="#6c8ebf" stroke-width="3" stroke-miterlimit="10"/>
    </g>
    <g class="edge" data-edge-idx="20" data-edge-base="partof" data-edge-from="8" data-edge-to="2">
    <line x1="936.04" y1="291.59" x2="890.63" y2="298.41" stroke="#82b366" stroke-width="3" />
    <path d="M 883.96 299.41 L 892.19 293.62 L 890.63 298.41 L 893.52 302.52 Z" fill="#82b366" stroke="#82b366" stroke-width="3" stroke-miterlimit="10"/>
    </g>
    <g class="edge" data-edge-idx="21" data-edge-base="partof" data-edge-from="8" data-edge-to="3">
    <line x1="939.22" y1="312.92" x2="882.09" y2="600.46" stroke="#82b366" stroke-width="3" />
    <path d="M 880.78 607.08 L 878.12 597.37 L 882.09 600.46 L 886.95 599.13 Z" fill="#82b366" stroke="#82b366" stroke-width="3" stroke-miterlimit="10"/>
    </g>
    <g class="edge" data-edge-idx="22" data-edge-base="expresses" data-edge-from="9" data-edge-to="11">
    <line x1="1116.04" y1="508.41" x2="1070.63" y2="501.59" stroke="#6c8ebf" stroke-width="3" stroke-dasharray="9 6" />
    <path d="M 1063.96 500.59 L 1073.52 497.48 L 1070.63 501.59 L 1072.19 506.38 Z" fill="#6c8ebf" stroke="#6c8ebf" stroke-width="3" stroke-miterlimit="10"/>
    </g>
  </g>
  <g id="nodes">
    <rect x="580" y="405" width="120" height="80" rx="6" ry="6" fill="#ffe6cc" stroke="#ff8000" stroke-width="2"/>
    <text x="640" y="428" text-anchor="middle" dominant-baseline="middle" font-family="Helvetica,Inter,Segoe UI,Arial" font-size="14" font-weight="bold" fill="#ff8000">Patrick wears</text>
    <text x="640" y="445" text-anchor="middle" dominant-baseline="middle" font-family="Helvetica,Inter,Segoe UI,Arial" font-size="14" font-weight="bold" fill="#ff8000">black then</text>
    <text x="640" y="462" text-anchor="middle" dominant-baseline="middle" font-family="Helvetica,Inter,Segoe UI,Arial" font-size="14" font-weight="bold" fill="#ff8000">wears white</text>
    <rect x="940" y="590" width="120" height="60" rx="6" ry="6" fill="#dae8fc" stroke="#6c8ebf" stroke-width="2"/>
    <text x="1000" y="620" text-anchor="middle" dominant-baseline="middle" font-family="Helvetica,Inter,Segoe UI,Arial" font-size="16" font-weight="normal" fill="#3399ff">taking off</text>
    <rect x="940" y="470" width="120" height="60" rx="6" ry="6" fill="#dae8fc" stroke="#6c8ebf" stroke-width="2"/>
    <text x="1000" y="490" text-anchor="middle" dominant-baseline="middle" font-family="Helvetica,Inter,Segoe UI,Arial" font-size="16" font-weight="normal" fill="#3399ff">wearing</text>
    <text x="1000" y="510" text-anchor="middle" dominant-baseline="middle" font-family="Helvetica,Inter,Segoe UI,Arial" font-size="16" font-weight="normal" fill="#3399ff">t-shirt</text>
    <rect x="1120" y="220" width="120" height="60" rx="6" ry="6" fill="#dae8fc" stroke="#6c8ebf" stroke-width="2"/>
    <text x="1180" y="250" text-anchor="middle" dominant-baseline="middle" font-family="Helvetica,Inter,Segoe UI,Arial" font-size="16" font-weight="normal" fill="#3399ff">t-shirt</text>
    <rect x="1120" y="320" width="120" height="60" rx="6" ry="6" fill="#dae8fc" stroke="#6c8ebf" stroke-width="2"/>
    <text x="1180" y="350" text-anchor="middle" dominant-baseline="middle" font-family="Helvetica,Inter,Segoe UI,Arial" font-size="16" font-weight="normal" fill="#3399ff">black</text>
    <rect x="1120" y="120" width="120" height="60" rx="6" ry="6" fill="#dae8fc" stroke="#6c8ebf" stroke-width="2"/>
    <text x="1180" y="150" text-anchor="middle" dominant-baseline="middle" font-family="Helvetica,Inter,Segoe UI,Arial" font-size="16" font-weight="normal" fill="#3399ff">white</text>
    <rect x="1300" y="220" width="120" height="60" rx="6" ry="6" fill="#dae8fc" stroke="#6c8ebf" stroke-width="2"/>
    <text x="1360" y="250" text-anchor="middle" dominant-baseline="middle" font-family="Helvetica,Inter,Segoe UI,Arial" font-size="16" font-weight="normal" fill="#3399ff">color</text>
    <rect x="620" y="40" width="40" height="40" rx="4" ry="4" fill="#ffe6cc" stroke="#ff8000" stroke-width="2"/>
    <text x="640" y="60" text-anchor="middle" dominant-baseline="middle" font-family="Helvetica,Inter,Segoe UI,Arial" font-size="16" font-weight="bold" fill="#ff8000">S</text>
    <rect x="620" y="810" width="40" height="40" rx="4" ry="4" fill="#ffe6cc" stroke="#ff8000" stroke-width="2"/>
    <text x="640" y="830" text-anchor="middle" dominant-baseline="middle" font-family="Helvetica,Inter,Segoe UI,Arial" font-size="16" font-weight="bold" fill="#ff8000">E</text>
    <rect x="760" y="270" width="120" height="60" rx="6" ry="6" fill="#ffe6cc" stroke="#ff8000" stroke-width="2"/>
    <text x="820" y="281" text-anchor="middle" dominant-baseline="middle" font-family="Helvetica,Inter,Segoe UI,Arial" font-size="16" font-weight="bold" fill="#ff8000">Patrick</text>
    <text x="820" y="300" text-anchor="middle" dominant-baseline="middle" font-family="Helvetica,Inter,Segoe UI,Arial" font-size="16" font-weight="bold" fill="#ff8000">wears black</text>
    <text x="820" y="319" text-anchor="middle" dominant-baseline="middle" font-family="Helvetica,Inter,Segoe UI,Arial" font-size="16" font-weight="bold" fill="#ff8000">over white</text>
    <rect x="760" y="590" width="120" height="60" rx="6" ry="6" fill="#ffe6cc" stroke="#ff8000" stroke-width="2"/>
    <text x="820" y="610" text-anchor="middle" dominant-baseline="middle" font-family="Helvetica,Inter,Segoe UI,Arial" font-size="16" font-weight="bold" fill="#ff8000">Take off</text>
    <text x="820" y="630" text-anchor="middle" dominant-baseline="middle" font-family="Helvetica,Inter,Segoe UI,Arial" font-size="16" font-weight="bold" fill="#ff8000">black</text>
    <rect x="760" y="710" width="120" height="60" rx="6" ry="6" fill="#ffe6cc" stroke="#ff8000" stroke-width="2"/>
    <text x="820" y="721" text-anchor="middle" dominant-baseline="middle" font-family="Helvetica,Inter,Segoe UI,Arial" font-size="16" font-weight="bold" fill="#ff8000">Patrick</text>
    <text x="820" y="740" text-anchor="middle" dominant-baseline="middle" font-family="Helvetica,Inter,Segoe UI,Arial" font-size="16" font-weight="bold" fill="#ff8000">wears white</text>
    <text x="820" y="759" text-anchor="middle" dominant-baseline="middle" font-family="Helvetica,Inter,Segoe UI,Arial" font-size="16" font-weight="bold" fill="#ff8000">t-shirt</text>
    <rect x="400" y="415" width="120" height="60" rx="6" ry="6" fill="#d5e8d4" stroke="#82b366" stroke-width="2"/>
    <text x="460" y="445" text-anchor="middle" dominant-baseline="middle" font-family="Helvetica,Inter,Segoe UI,Arial" font-size="16" font-weight="normal" fill="#009900">Patrick</text>
    <rect x="220" y="415" width="120" height="60" rx="6" ry="6" fill="#dae8fc" stroke="#6c8ebf" stroke-width="2"/>
    <text x="280" y="445" text-anchor="middle" dominant-baseline="middle" font-family="Helvetica,Inter,Segoe UI,Arial" font-size="16" font-weight="normal" fill="#3399ff">human</text>
    <rect x="940" y="170" width="120" height="60" rx="6" ry="6" fill="#d5e8d4" stroke="#82b366" stroke-width="2"/>
    <text x="1000" y="200" text-anchor="middle" dominant-baseline="middle" font-family="Helvetica,Inter,Segoe UI,Arial" font-size="16" font-weight="normal" fill="#009900">t-shirt W</text>
    <rect x="940" y="270" width="120" height="60" rx="6" ry="6" fill="#d5e8d4" stroke="#82b366" stroke-width="2"/>
    <text x="1000" y="300" text-anchor="middle" dominant-baseline="middle" font-family="Helvetica,Inter,Segoe UI,Arial" font-size="16" font-weight="normal" fill="#009900">t-shirt B</text>
    <rect x="1120" y="470" width="120" height="60" rx="6" ry="6" fill="#dae8fc" stroke="#6c8ebf" stroke-width="2"/>
    <text x="1180" y="490" text-anchor="middle" dominant-baseline="middle" font-family="Helvetica,Inter,Segoe UI,Arial" font-size="16" font-weight="normal" fill="#3399ff">wearing two</text>
    <text x="1180" y="510" text-anchor="middle" dominant-baseline="middle" font-family="Helvetica,Inter,Segoe UI,Arial" font-size="16" font-weight="normal" fill="#3399ff">t-shirts</text>
  </g>
</svg>
