<?xml version="1.0" encoding="UTF-8"?>
<svg xmlns="http://www.w3.org/2000/svg" width="600" height="540" viewBox="0 0 600 540">
  <!-- ipm-svg meta: generated-by=ipm-rpc@v0.0.0-20260716060136-a106aa055900+dirty hash=b0cc5788 source-file=docs/examples/tshirt-magic.md source-id=160 -->

  <defs>
  </defs>
  <g id="container-shells">
  </g>
  <g id="node-shadows">
    <rect x="40" y="40" width="120" height="60" rx="6" ry="6" fill="#000000" stroke="#000000" stroke-width="2" opacity="0.25" transform="translate(2,3)"/>
    <rect x="440" y="240" width="120" height="60" rx="6" ry="6" fill="#000000" stroke="#000000" stroke-width="2" opacity="0.25" transform="translate(2,3)"/>
    <rect x="40" y="140" width="120" height="60" rx="6" ry="6" fill="#000000" stroke="#000000" stroke-width="2" opacity="0.25" transform="translate(2,3)"/>
    <rect x="40" y="240" width="120" height="60" rx="6" ry="6" fill="#000000" stroke="#000000" stroke-width="2" opacity="0.25" transform="translate(2,3)"/>
    <rect x="40" y="340" width="120" height="60" rx="6" ry="6" fill="#000000" stroke="#000000" stroke-width="2" opacity="0.25" transform="translate(2,3)"/>
    <rect x="140" y="440" width="120" height="60" rx="6" ry="6" fill="#000000" stroke="#000000" stroke-width="2" opacity="0.25" transform="translate(2,3)"/>
    <rect x="260" y="340" width="120" height="60" rx="6" ry="6" fill="#000000" stroke="#000000" stroke-width="2" opacity="0.25" transform="translate(2,3)"/>
    <rect x="220" y="40" width="120" height="60" rx="6" ry="6" fill="#000000" stroke="#000000" stroke-width="2" opacity="0.25" transform="translate(2,3)"/>
    <rect x="220" y="140" width="120" height="60" rx="6" ry="6" fill="#000000" stroke="#000000" stroke-width="2" opacity="0.25" transform="translate(2,3)"/>
    <rect x="220" y="240" width="120" height="60" rx="6" ry="6" fill="#000000" stroke="#000000" stroke-width="2" opacity="0.25" transform="translate(2,3)"/>
  </g>
  <g id="edges">
    <g class="edge" data-edge-idx="0" data-edge-base="expresses" data-edge-from="1" data-edge-to="2">
    <line x1="100.00" y1="105.00" x2="100.00" y2="128.25" stroke="#6c8ebf" stroke-width="3" stroke-dasharray="9 6" />
    <path d="M 100.00 135.00 L 95.50 126.00 L 100.00 128.25 L 104.50 126.00 Z" fill="#6c8ebf" stroke="#6c8ebf" stroke-width="3" stroke-miterlimit="10"/>
    </g>
    <g class="edge" data-edge-idx="1" data-edge-base="expresses" data-edge-from="2" data-edge-to="3">
    <line x1="100.00" y1="205.00" x2="100.00" y2="228.25" stroke="#6c8ebf" stroke-width="3" stroke-dasharray="9 6" />
    <path d="M 100.00 235.00 L 95.50 226.00 L 100.00 228.25 L 104.50 226.00 Z" fill="#6c8ebf" stroke="#6c8ebf" stroke-width="3" stroke-miterlimit="10"/>
    </g>
    <g class="edge" data-edge-idx="2" data-edge-base="expresses" data-edge-from="3" data-edge-to="4">
    <line x1="100.00" y1="305.00" x2="100.00" y2="328.25" stroke="#6c8ebf" stroke-width="3" stroke-dasharray="9 6" />
    <path d="M 100.00 335.00 L 95.50 326.00 L 100.00 328.25 L 104.50 326.00 Z" fill="#6c8ebf" stroke="#6c8ebf" stroke-width="3" stroke-miterlimit="10"/>
    </g>
    <g class="edge" data-edge-idx="3" data-edge-base="expresses" data-edge-from="4" data-edge-to="5">
    <line x1="110.00" y1="405.00" x2="163.96" y2="431.98" stroke="#6c8ebf" stroke-width="3" stroke-dasharray="9 6" />
    <path d="M 170.00 435.00 L 159.94 435.00 L 163.96 431.98 L 163.96 426.95 Z" fill="#6c8ebf" stroke="#6c8ebf" stroke-width="3" stroke-miterlimit="10"/>
    </g>
    <g class="edge" data-edge-idx="4" data-edge-base="nearto" data-edge-from="4" data-edge-to="6">
    <line x1="165.00" y1="370.00" x2="255.00" y2="370.00" stroke="#999999" stroke-width="3" stroke-linecap="round" stroke-dasharray="0 6" />
    </g>
    <g class="edge" data-edge-idx="5" data-edge-base="expresses" data-edge-from="7" data-edge-to="8">
    <line x1="280.00" y1="105.00" x2="280.00" y2="128.25" stroke="#6c8ebf" stroke-width="3" stroke-dasharray="9 6" />
    <path d="M 280.00 135.00 L 275.50 126.00 L 280.00 128.25 L 284.50 126.00 Z" fill="#6c8ebf" stroke="#6c8ebf" stroke-width="3" stroke-miterlimit="10"/>
    </g>
    <g class="edge" data-edge-idx="6" data-edge-base="expresses" data-edge-from="8" data-edge-to="9">
    <line x1="280.00" y1="205.00" x2="280.00" y2="228.25" stroke="#6c8ebf" stroke-width="3" stroke-dasharray="9 6" />
    <path d="M 280.00 235.00 L 275.50 226.00 L 280.00 228.25 L 284.50 226.00 Z" fill="#6c8ebf" stroke="#6c8ebf" stroke-width="3" stroke-miterlimit="10"/>
    </g>
    <g class="edge" data-edge-idx="7" data-edge-base="expresses" data-edge-from="9" data-edge-to="5">
    <polyline points="220.00,286.00 220,270 220.00,428.25" fill="none" stroke="#6c8ebf" stroke-width="3" stroke-dasharray="9 6" />
    <path d="M 220.00 435.00 L 215.50 426.00 L 220.00 428.25 L 224.50 426.00 Z" fill="#6c8ebf" stroke="#6c8ebf" stroke-width="3" stroke-miterlimit="10"/>
    </g>
    <g class="edge" data-edge-idx="8" data-edge-base="nearto" data-edge-from="9" data-edge-to="10">
    <line x1="345.00" y1="270.00" x2="435.00" y2="270.00" stroke="#999999" stroke-width="3" stroke-linecap="round" stroke-dasharray="0 6" />
    </g>
  </g>
  <g id="nodes">
    <rect x="40" y="40" width="120" height="60" rx="6" ry="6" fill="#d5e8d4" stroke="#82b366" stroke-width="2"/>
    <text x="100" y="70" text-anchor="middle" dominant-baseline="middle" font-family="Helvetica,Inter,Segoe UI,Arial" font-size="16" font-weight="normal" fill="#009900">t-shirt T1</text>
    <rect x="440" y="240" width="120" height="60" rx="6" ry="6" fill="#dae8fc" stroke="#6c8ebf" stroke-width="2"/>
    <text x="500" y="270" text-anchor="middle" dominant-baseline="middle" font-family="Helvetica,Inter,Segoe UI,Arial" font-size="16" font-weight="normal" fill="#3399ff">nature</text>
    <rect x="40" y="140" width="120" height="60" rx="6" ry="6" fill="#dae8fc" stroke="#6c8ebf" stroke-width="2"/>
    <text x="100" y="170" text-anchor="middle" dominant-baseline="middle" font-family="Helvetica,Inter,Segoe UI,Arial" font-size="16" font-weight="normal" fill="#3399ff">t-shirt</text>
    <rect x="40" y="240" width="120" height="60" rx="6" ry="6" fill="#dae8fc" stroke="#6c8ebf" stroke-width="2"/>
    <text x="100" y="270" text-anchor="middle" dominant-baseline="middle" font-family="Helvetica,Inter,Segoe UI,Arial" font-size="16" font-weight="normal" fill="#3399ff">clothes</text>
    <rect x="40" y="340" width="120" height="60" rx="6" ry="6" fill="#dae8fc" stroke="#6c8ebf" stroke-width="2"/>
    <text x="100" y="370" text-anchor="middle" dominant-baseline="middle" font-family="Helvetica,Inter,Segoe UI,Arial" font-size="16" font-weight="normal" fill="#3399ff">human thing</text>
    <rect x="140" y="440" width="120" height="60" rx="6" ry="6" fill="#dae8fc" stroke="#6c8ebf" stroke-width="2"/>
    <text x="200" y="470" text-anchor="middle" dominant-baseline="middle" font-family="Helvetica,Inter,Segoe UI,Arial" font-size="16" font-weight="normal" fill="#3399ff">thing</text>
    <rect x="260" y="340" width="120" height="60" rx="6" ry="6" fill="#dae8fc" stroke="#6c8ebf" stroke-width="2"/>
    <text x="320" y="370" text-anchor="middle" dominant-baseline="middle" font-family="Helvetica,Inter,Segoe UI,Arial" font-size="16" font-weight="normal" fill="#3399ff">human</text>
    <rect x="220" y="40" width="120" height="60" rx="6" ry="6" fill="#d5e8d4" stroke="#82b366" stroke-width="2"/>
    <text x="280" y="70" text-anchor="middle" dominant-baseline="middle" font-family="Helvetica,Inter,Segoe UI,Arial" font-size="16" font-weight="normal" fill="#009900">stone S1</text>
    <rect x="220" y="140" width="120" height="60" rx="6" ry="6" fill="#dae8fc" stroke="#6c8ebf" stroke-width="2"/>
    <text x="280" y="170" text-anchor="middle" dominant-baseline="middle" font-family="Helvetica,Inter,Segoe UI,Arial" font-size="16" font-weight="normal" fill="#3399ff">stone</text>
    <rect x="220" y="240" width="120" height="60" rx="6" ry="6" fill="#dae8fc" stroke="#6c8ebf" stroke-width="2"/>
    <text x="280" y="260" text-anchor="middle" dominant-baseline="middle" font-family="Helvetica,Inter,Segoe UI,Arial" font-size="16" font-weight="normal" fill="#3399ff">natural</text>
    <text x="280" y="280" text-anchor="middle" dominant-baseline="middle" font-family="Helvetica,Inter,Segoe UI,Arial" font-size="16" font-weight="normal" fill="#3399ff">thing</text>
  </g>
</svg>
