<?xml version="1.0" encoding="UTF-8"?>
<svg xmlns="http://www.w3.org/2000/svg" width="380" height="300" viewBox="0 0 380 300">
  <!-- ipm-svg meta: generated-by=md-embed@dev hash=4eaff8f0 source-file=dev/syntax-combinations.md source-id=12 -->

  <defs>
  </defs>
  <g id="container-shells">
  </g>
  <g id="node-shadows">
    <rect x="40" y="120" width="120" height="60" rx="6" ry="6" fill="#000000" stroke="#000000" stroke-width="2" opacity="0.25" transform="translate(2,3)"/>
    <rect x="220" y="120" width="120" height="60" rx="6" ry="6" fill="#000000" stroke="#000000" stroke-width="2" opacity="0.25" transform="translate(2,3)"/>
    <rect x="80" y="40" width="40" height="40" rx="4" ry="4" fill="#000000" stroke="#000000" stroke-width="2" opacity="0.25" transform="translate(2,3)"/>
    <rect x="80" y="220" width="40" height="40" rx="4" ry="4" fill="#000000" stroke="#000000" stroke-width="2" opacity="0.25" transform="translate(2,3)"/>
  </g>
  <g id="edges">
    <line x1="100.00" y1="184.00" x2="100.00" y2="209.25" stroke="#ff8000" stroke-width="3" />
    <path d="M 100.00 216.00 L 95.50 207.00 L 100.00 209.25 L 104.50 207.00 Z" fill="#ff8000" stroke="#ff8000" stroke-width="3" stroke-miterlimit="10"/>
    <line x1="216.00" y1="150.00" x2="170.75" y2="150.00" stroke="#82b366" stroke-width="3" />
    <path d="M 164.00 150.00 L 173.00 145.50 L 170.75 150.00 L 173.00 154.50 Z" fill="#82b366" stroke="#82b366" stroke-width="3" stroke-miterlimit="10"/>
    <line x1="100.00" y1="84.00" x2="100.00" y2="109.25" stroke="#ff8000" stroke-width="3" />
    <path d="M 100.00 116.00 L 95.50 107.00 L 100.00 109.25 L 104.50 107.00 Z" fill="#ff8000" stroke="#ff8000" stroke-width="3" stroke-miterlimit="10"/>
  </g>
  <g id="nodes">
    <rect x="40" y="120" width="120" height="60" rx="6" ry="6" fill="#ffe6cc" stroke="#ff8000" stroke-width="2"/>
    <text x="100" y="150" text-anchor="middle" dominant-baseline="middle" font-family="Helvetica,Inter,Segoe UI,Arial" font-size="16" font-weight="bold" fill="#ff8000">outer</text>
    <rect x="220" y="120" width="120" height="60" rx="6" ry="6" fill="#ffe6cc" stroke="#ff8000" stroke-width="2"/>
    <text x="280" y="150" text-anchor="middle" dominant-baseline="middle" font-family="Helvetica,Inter,Segoe UI,Arial" font-size="16" font-weight="bold" fill="#ff8000">inner</text>
    <rect x="80" y="40" width="40" height="40" rx="4" ry="4" fill="#ffe6cc" stroke="#ff8000" stroke-width="2"/>
    <text x="100" y="60" text-anchor="middle" dominant-baseline="middle" font-family="Helvetica,Inter,Segoe UI,Arial" font-size="16" font-weight="bold" fill="#ff8000">S</text>
    <rect x="80" y="220" width="40" height="40" rx="4" ry="4" fill="#ffe6cc" stroke="#ff8000" stroke-width="2"/>
    <text x="100" y="240" text-anchor="middle" dominant-baseline="middle" font-family="Helvetica,Inter,Segoe UI,Arial" font-size="16" font-weight="bold" fill="#ff8000">E</text>
  </g>
</svg>
